<mxfile host="Electron" agent="Mozilla/5.0 (Macintosh; Intel Mac OS X 10_15_7) AppleWebKit/537.36 (KHTML, like Gecko) draw.io/26.2.15 Chrome/134.0.6998.205 Electron/35.2.1 Safari/537.36" version="26.2.15">
  <diagram name="Page-1" id="FP_n_ZNrzBrjEWmHSm7J">
    <mxGraphModel dx="1058" dy="702" grid="1" gridSize="10" guides="1" tooltips="1" connect="1" arrows="1" fold="1" page="1" pageScale="1" pageWidth="827" pageHeight="1169" math="0" shadow="0">
      <root>
        <mxCell id="0" />
        <mxCell id="1" parent="0" />
        <mxCell id="ob0Ww40zBPSw4X5EWycA-34" value="Used words" style="swimlane;whiteSpace=wrap;html=1;" vertex="1" parent="1">
          <mxGeometry x="180" y="155" width="200" height="585" as="geometry" />
        </mxCell>
        <mxCell id="ob0Ww40zBPSw4X5EWycA-35" value="" style="rounded=0;whiteSpace=wrap;html=1;" vertex="1" parent="ob0Ww40zBPSw4X5EWycA-34">
          <mxGeometry x="180" y="130" width="20" height="260" as="geometry" />
        </mxCell>
        <mxCell id="ob0Ww40zBPSw4X5EWycA-17" value="some phrase" style="text;html=1;align=center;verticalAlign=middle;resizable=0;points=[];autosize=1;strokeColor=none;fillColor=none;" vertex="1" parent="ob0Ww40zBPSw4X5EWycA-34">
          <mxGeometry x="57.5" y="75" width="90" height="30" as="geometry" />
        </mxCell>
        <mxCell id="ob0Ww40zBPSw4X5EWycA-20" value="some phrase" style="text;html=1;align=center;verticalAlign=middle;resizable=0;points=[];autosize=1;strokeColor=none;fillColor=none;" vertex="1" parent="ob0Ww40zBPSw4X5EWycA-34">
          <mxGeometry x="57.5" y="115" width="90" height="30" as="geometry" />
        </mxCell>
        <mxCell id="ob0Ww40zBPSw4X5EWycA-23" value="some phrase" style="text;html=1;align=center;verticalAlign=middle;resizable=0;points=[];autosize=1;strokeColor=none;fillColor=none;" vertex="1" parent="ob0Ww40zBPSw4X5EWycA-34">
          <mxGeometry x="57.5" y="165" width="90" height="30" as="geometry" />
        </mxCell>
        <mxCell id="ob0Ww40zBPSw4X5EWycA-25" value="some phrase" style="text;html=1;align=center;verticalAlign=middle;resizable=0;points=[];autosize=1;strokeColor=none;fillColor=none;" vertex="1" parent="ob0Ww40zBPSw4X5EWycA-34">
          <mxGeometry x="57.5" y="35" width="90" height="30" as="geometry" />
        </mxCell>
        <mxCell id="ob0Ww40zBPSw4X5EWycA-27" value="some phrase" style="text;html=1;align=center;verticalAlign=middle;resizable=0;points=[];autosize=1;strokeColor=none;fillColor=none;" vertex="1" parent="ob0Ww40zBPSw4X5EWycA-34">
          <mxGeometry x="57.5" y="245" width="90" height="30" as="geometry" />
        </mxCell>
        <mxCell id="ob0Ww40zBPSw4X5EWycA-29" value="some phrase" style="text;html=1;align=center;verticalAlign=middle;resizable=0;points=[];autosize=1;strokeColor=none;fillColor=none;" vertex="1" parent="ob0Ww40zBPSw4X5EWycA-34">
          <mxGeometry x="57.5" y="285" width="90" height="30" as="geometry" />
        </mxCell>
        <mxCell id="ob0Ww40zBPSw4X5EWycA-31" value="some phrase" style="text;html=1;align=center;verticalAlign=middle;resizable=0;points=[];autosize=1;strokeColor=none;fillColor=none;" vertex="1" parent="ob0Ww40zBPSw4X5EWycA-34">
          <mxGeometry x="57.5" y="325" width="90" height="30" as="geometry" />
        </mxCell>
        <mxCell id="ob0Ww40zBPSw4X5EWycA-33" value="some phrase" style="text;html=1;align=center;verticalAlign=middle;resizable=0;points=[];autosize=1;strokeColor=none;fillColor=none;" vertex="1" parent="ob0Ww40zBPSw4X5EWycA-34">
          <mxGeometry x="57.5" y="365" width="90" height="30" as="geometry" />
        </mxCell>
        <mxCell id="ob0Ww40zBPSw4X5EWycA-61" value="" style="shape=image;editableCssRules=.*;verticalLabelPosition=bottom;labelBackgroundColor=default;verticalAlign=top;aspect=fixed;imageAspect=0;image=data:image/svg+xml,PHN2ZyB4bWxucz0iaHR0cDovL3d3dy53My5vcmcvMjAwMC9zdmciIHZpZXdCb3g9Ii0wLjUgLTAuNSAyOCAyOCIgaGVpZ2h0PSIyOCIgd2lkdGg9IjI4Ij4mI3hhOwkgIDxzdHlsZSB0eXBlPSJ0ZXh0L2NzcyI+LnN0MCB7IHN0b3AtY29sb3I6IHJnYig5MSwgMTE1LCAxMzkpOyB9IC5zdDEgeyBzdG9wLWNvbG9yOiByZ2IoMzQsIDUzLCA3Mik7IH0gPC9zdHlsZT4mI3hhOwk8ZGVmcz4mI3hhOwkJPGxpbmVhckdyYWRpZW50IGdyYWRpZW50VW5pdHM9InVzZXJTcGFjZU9uVXNlIiB5Mj0iMjUuMzA5IiB4Mj0iMjMuNDU0IiB5MT0iMy40NzQiIHgxPSIyLjAzOSIgaWQ9IkEiPiYjeGE7CQkJPHN0b3AgY2xhc3M9InN0MCIvPiYjeGE7CQkJPHN0b3AgY2xhc3M9InN0MSIgb2Zmc2V0PSIxIi8+JiN4YTsJCTwvbGluZWFyR3JhZGllbnQ+JiN4YTsJPC9kZWZzPiYjeGE7CTxwYXRoIGZpbGw9InVybCgjQSkiIGQ9Ik0xNS4yNSAxMy4xNzNhMS43IDEuNyAwIDAgMC0uMTE2LS42OGMtLjA4NS0uMjE2LS4yMTMtLjQxMy0uMzc2LS41NzhzLS4zNjItLjI5MS0uNTc4LS4zNzYtLjQ0OC0uMTI0LS42OC0uMTE2Yy0uMjMyLS4wMDgtLjQ2NC4wMzEtLjY4LjExNnMtLjQxMy4yMTMtLjU3OC4zNzYtLjI5MS4zNjItLjM3Ni41NzhhMS43IDEuNyAwIDAgMC0uMTE2LjY4djdjMCAuNDcyLjE2NS44OTIuNDkyIDEuMjU4LjE2NS4xNjMuMzYyLjI5MS41NzkuMzc1cy40NDguMTIzLjY4LjExNWExLjcgMS43IDAgMCAwIDEuMjU4LS40OWMuMzI3LS4zNjYuNDkyLS43ODQuNDkyLTEuMjZ2LTd6TTEzLjUtLjVjMS45MzIgMCAzLjczNi4zNjYgNS40MTQgMS4wOTQgMS43MTMuNzMgMy4yMDggMS43MzIgNC40ODMgMy4wMDggMS4yODMgMS4yODcgMi4zMDUgMi44MSAzLjAwOCA0LjQ4NS43MyAxLjY3NiAxLjA5NCAzLjQ4MiAxLjA5NCA1LjQxM2ExMy44MiAxMy44MiAwIDAgMS0xLjA5NCA1LjQ2OWMtLjcxMyAxLjY1NC0xLjczNCAzLjE1OC0zLjAwOCA0LjQzMS0xLjI4NiAxLjI4Mi0yLjgwOSAyLjMwMy00LjQ4MyAzLjAwNi0xLjcxLjczNi0zLjU1MyAxLjEwOC01LjQxNCAxLjA5NC0xLjg3OC4wMTEtMy43MzktLjM2MS01LjQ2OS0xLjA5NGExNC4yMyAxNC4yMyAwIDAgMS03LjQzNy03LjQzN0ExMy44MiAxMy44MiAwIDAgMS0uNSAxMy41YzAtMS45MzIuMzY0LTMuNzM2IDEuMDk0LTUuNDEzLjczLTEuNzE1IDEuNzMyLTMuMjA5IDMuMDA4LTQuNDg1UzYuMzc4IDEuMzA3IDguMDMxLjU5NEExMy44MiAxMy44MiAwIDAgMSAxMy41LS41em0wIDkuNzM1YTIuMDEgMi4wMSAwIDAgMCAxLjQ3Ny0uNjAyIDIuMDEgMi4wMSAwIDAgMCAuNjAyLTEuNDc3YzAtLjU4My0uMjAxLTEuMDc0LS42MDItMS40NzUtLjE4NC0uMjEtLjQxMS0uMzc3LS42NjYtLjQ5MXMtLjUzMi0uMTctLjgxMS0uMTY2Yy0uMjc5LS4wMDQtLjU1Ni4wNTItLjgxMS4xNjZzLS40ODIuMjgxLS42NjYuNDkxYy0uNDAxLjQwMS0uNi44OTItLjYgMS40NzVzLjIgMS4wNzYuNiAxLjQ3Ny44OTMuNjAyIDEuNDc3LjYwMnoiLz4mI3hhOzwvc3ZnPg==;" vertex="1" parent="ob0Ww40zBPSw4X5EWycA-34">
          <mxGeometry x="29.5" y="75" width="28" height="28" as="geometry" />
        </mxCell>
        <mxCell id="ob0Ww40zBPSw4X5EWycA-62" value="" style="shape=image;editableCssRules=.*;verticalLabelPosition=bottom;labelBackgroundColor=default;verticalAlign=top;aspect=fixed;imageAspect=0;image=data:image/svg+xml,PHN2ZyB4bWxucz0iaHR0cDovL3d3dy53My5vcmcvMjAwMC9zdmciIHZpZXdCb3g9Ii0wLjUgLTAuNSAyOCAyOCIgaGVpZ2h0PSIyOCIgd2lkdGg9IjI4Ij4mI3hhOwkgIDxzdHlsZSB0eXBlPSJ0ZXh0L2NzcyI+LnN0MCB7IHN0b3AtY29sb3I6IHJnYig5MSwgMTE1LCAxMzkpOyB9IC5zdDEgeyBzdG9wLWNvbG9yOiByZ2IoMzQsIDUzLCA3Mik7IH0gPC9zdHlsZT4mI3hhOwk8ZGVmcz4mI3hhOwkJPGxpbmVhckdyYWRpZW50IGdyYWRpZW50VW5pdHM9InVzZXJTcGFjZU9uVXNlIiB5Mj0iMjUuMzA5IiB4Mj0iMjMuNDU0IiB5MT0iMy40NzQiIHgxPSIyLjAzOSIgaWQ9IkEiPiYjeGE7CQkJPHN0b3AgY2xhc3M9InN0MCIvPiYjeGE7CQkJPHN0b3AgY2xhc3M9InN0MSIgb2Zmc2V0PSIxIi8+JiN4YTsJCTwvbGluZWFyR3JhZGllbnQ+JiN4YTsJPC9kZWZzPiYjeGE7CTxwYXRoIGZpbGw9InVybCgjQSkiIGQ9Ik0xNS4yNSAxMy4xNzNhMS43IDEuNyAwIDAgMC0uMTE2LS42OGMtLjA4NS0uMjE2LS4yMTMtLjQxMy0uMzc2LS41NzhzLS4zNjItLjI5MS0uNTc4LS4zNzYtLjQ0OC0uMTI0LS42OC0uMTE2Yy0uMjMyLS4wMDgtLjQ2NC4wMzEtLjY4LjExNnMtLjQxMy4yMTMtLjU3OC4zNzYtLjI5MS4zNjItLjM3Ni41NzhhMS43IDEuNyAwIDAgMC0uMTE2LjY4djdjMCAuNDcyLjE2NS44OTIuNDkyIDEuMjU4LjE2NS4xNjMuMzYyLjI5MS41NzkuMzc1cy40NDguMTIzLjY4LjExNWExLjcgMS43IDAgMCAwIDEuMjU4LS40OWMuMzI3LS4zNjYuNDkyLS43ODQuNDkyLTEuMjZ2LTd6TTEzLjUtLjVjMS45MzIgMCAzLjczNi4zNjYgNS40MTQgMS4wOTQgMS43MTMuNzMgMy4yMDggMS43MzIgNC40ODMgMy4wMDggMS4yODMgMS4yODcgMi4zMDUgMi44MSAzLjAwOCA0LjQ4NS43MyAxLjY3NiAxLjA5NCAzLjQ4MiAxLjA5NCA1LjQxM2ExMy44MiAxMy44MiAwIDAgMS0xLjA5NCA1LjQ2OWMtLjcxMyAxLjY1NC0xLjczNCAzLjE1OC0zLjAwOCA0LjQzMS0xLjI4NiAxLjI4Mi0yLjgwOSAyLjMwMy00LjQ4MyAzLjAwNi0xLjcxLjczNi0zLjU1MyAxLjEwOC01LjQxNCAxLjA5NC0xLjg3OC4wMTEtMy43MzktLjM2MS01LjQ2OS0xLjA5NGExNC4yMyAxNC4yMyAwIDAgMS03LjQzNy03LjQzN0ExMy44MiAxMy44MiAwIDAgMS0uNSAxMy41YzAtMS45MzIuMzY0LTMuNzM2IDEuMDk0LTUuNDEzLjczLTEuNzE1IDEuNzMyLTMuMjA5IDMuMDA4LTQuNDg1UzYuMzc4IDEuMzA3IDguMDMxLjU5NEExMy44MiAxMy44MiAwIDAgMSAxMy41LS41em0wIDkuNzM1YTIuMDEgMi4wMSAwIDAgMCAxLjQ3Ny0uNjAyIDIuMDEgMi4wMSAwIDAgMCAuNjAyLTEuNDc3YzAtLjU4My0uMjAxLTEuMDc0LS42MDItMS40NzUtLjE4NC0uMjEtLjQxMS0uMzc3LS42NjYtLjQ5MXMtLjUzMi0uMTctLjgxMS0uMTY2Yy0uMjc5LS4wMDQtLjU1Ni4wNTItLjgxMS4xNjZzLS40ODIuMjgxLS42NjYuNDkxYy0uNDAxLjQwMS0uNi44OTItLjYgMS40NzVzLjIgMS4wNzYuNiAxLjQ3Ny44OTMuNjAyIDEuNDc3LjYwMnoiLz4mI3hhOzwvc3ZnPg==;" vertex="1" parent="ob0Ww40zBPSw4X5EWycA-34">
          <mxGeometry x="29.5" y="125" width="28" height="28" as="geometry" />
        </mxCell>
        <mxCell id="ob0Ww40zBPSw4X5EWycA-63" value="" style="shape=image;editableCssRules=.*;verticalLabelPosition=bottom;labelBackgroundColor=default;verticalAlign=top;aspect=fixed;imageAspect=0;image=data:image/svg+xml,PHN2ZyB4bWxucz0iaHR0cDovL3d3dy53My5vcmcvMjAwMC9zdmciIHZpZXdCb3g9Ii0wLjUgLTAuNSAyOCAyOCIgaGVpZ2h0PSIyOCIgd2lkdGg9IjI4Ij4mI3hhOwkgIDxzdHlsZSB0eXBlPSJ0ZXh0L2NzcyI+LnN0MCB7IHN0b3AtY29sb3I6IHJnYig5MSwgMTE1LCAxMzkpOyB9IC5zdDEgeyBzdG9wLWNvbG9yOiByZ2IoMzQsIDUzLCA3Mik7IH0gPC9zdHlsZT4mI3hhOwk8ZGVmcz4mI3hhOwkJPGxpbmVhckdyYWRpZW50IGdyYWRpZW50VW5pdHM9InVzZXJTcGFjZU9uVXNlIiB5Mj0iMjUuMzA5IiB4Mj0iMjMuNDU0IiB5MT0iMy40NzQiIHgxPSIyLjAzOSIgaWQ9IkEiPiYjeGE7CQkJPHN0b3AgY2xhc3M9InN0MCIvPiYjeGE7CQkJPHN0b3AgY2xhc3M9InN0MSIgb2Zmc2V0PSIxIi8+JiN4YTsJCTwvbGluZWFyR3JhZGllbnQ+JiN4YTsJPC9kZWZzPiYjeGE7CTxwYXRoIGZpbGw9InVybCgjQSkiIGQ9Ik0xNS4yNSAxMy4xNzNhMS43IDEuNyAwIDAgMC0uMTE2LS42OGMtLjA4NS0uMjE2LS4yMTMtLjQxMy0uMzc2LS41NzhzLS4zNjItLjI5MS0uNTc4LS4zNzYtLjQ0OC0uMTI0LS42OC0uMTE2Yy0uMjMyLS4wMDgtLjQ2NC4wMzEtLjY4LjExNnMtLjQxMy4yMTMtLjU3OC4zNzYtLjI5MS4zNjItLjM3Ni41NzhhMS43IDEuNyAwIDAgMC0uMTE2LjY4djdjMCAuNDcyLjE2NS44OTIuNDkyIDEuMjU4LjE2NS4xNjMuMzYyLjI5MS41NzkuMzc1cy40NDguMTIzLjY4LjExNWExLjcgMS43IDAgMCAwIDEuMjU4LS40OWMuMzI3LS4zNjYuNDkyLS43ODQuNDkyLTEuMjZ2LTd6TTEzLjUtLjVjMS45MzIgMCAzLjczNi4zNjYgNS40MTQgMS4wOTQgMS43MTMuNzMgMy4yMDggMS43MzIgNC40ODMgMy4wMDggMS4yODMgMS4yODcgMi4zMDUgMi44MSAzLjAwOCA0LjQ4NS43MyAxLjY3NiAxLjA5NCAzLjQ4MiAxLjA5NCA1LjQxM2ExMy44MiAxMy44MiAwIDAgMS0xLjA5NCA1LjQ2OWMtLjcxMyAxLjY1NC0xLjczNCAzLjE1OC0zLjAwOCA0LjQzMS0xLjI4NiAxLjI4Mi0yLjgwOSAyLjMwMy00LjQ4MyAzLjAwNi0xLjcxLjczNi0zLjU1MyAxLjEwOC01LjQxNCAxLjA5NC0xLjg3OC4wMTEtMy43MzktLjM2MS01LjQ2OS0xLjA5NGExNC4yMyAxNC4yMyAwIDAgMS03LjQzNy03LjQzN0ExMy44MiAxMy44MiAwIDAgMS0uNSAxMy41YzAtMS45MzIuMzY0LTMuNzM2IDEuMDk0LTUuNDEzLjczLTEuNzE1IDEuNzMyLTMuMjA5IDMuMDA4LTQuNDg1UzYuMzc4IDEuMzA3IDguMDMxLjU5NEExMy44MiAxMy44MiAwIDAgMSAxMy41LS41em0wIDkuNzM1YTIuMDEgMi4wMSAwIDAgMCAxLjQ3Ny0uNjAyIDIuMDEgMi4wMSAwIDAgMCAuNjAyLTEuNDc3YzAtLjU4My0uMjAxLTEuMDc0LS42MDItMS40NzUtLjE4NC0uMjEtLjQxMS0uMzc3LS42NjYtLjQ5MXMtLjUzMi0uMTctLjgxMS0uMTY2Yy0uMjc5LS4wMDQtLjU1Ni4wNTItLjgxMS4xNjZzLS40ODIuMjgxLS42NjYuNDkxYy0uNDAxLjQwMS0uNi44OTItLjYgMS40NzVzLjIgMS4wNzYuNiAxLjQ3Ny44OTMuNjAyIDEuNDc3LjYwMnoiLz4mI3hhOzwvc3ZnPg==;" vertex="1" parent="ob0Ww40zBPSw4X5EWycA-34">
          <mxGeometry x="29.5" y="165" width="28" height="28" as="geometry" />
        </mxCell>
        <mxCell id="ob0Ww40zBPSw4X5EWycA-64" value="" style="shape=image;editableCssRules=.*;verticalLabelPosition=bottom;labelBackgroundColor=default;verticalAlign=top;aspect=fixed;imageAspect=0;image=data:image/svg+xml,PHN2ZyB4bWxucz0iaHR0cDovL3d3dy53My5vcmcvMjAwMC9zdmciIHZpZXdCb3g9Ii0wLjUgLTAuNSAyOCAyOCIgaGVpZ2h0PSIyOCIgd2lkdGg9IjI4Ij4mI3hhOwkgIDxzdHlsZSB0eXBlPSJ0ZXh0L2NzcyI+LnN0MCB7IHN0b3AtY29sb3I6IHJnYig5MSwgMTE1LCAxMzkpOyB9IC5zdDEgeyBzdG9wLWNvbG9yOiByZ2IoMzQsIDUzLCA3Mik7IH0gPC9zdHlsZT4mI3hhOwk8ZGVmcz4mI3hhOwkJPGxpbmVhckdyYWRpZW50IGdyYWRpZW50VW5pdHM9InVzZXJTcGFjZU9uVXNlIiB5Mj0iMjUuMzA5IiB4Mj0iMjMuNDU0IiB5MT0iMy40NzQiIHgxPSIyLjAzOSIgaWQ9IkEiPiYjeGE7CQkJPHN0b3AgY2xhc3M9InN0MCIvPiYjeGE7CQkJPHN0b3AgY2xhc3M9InN0MSIgb2Zmc2V0PSIxIi8+JiN4YTsJCTwvbGluZWFyR3JhZGllbnQ+JiN4YTsJPC9kZWZzPiYjeGE7CTxwYXRoIGZpbGw9InVybCgjQSkiIGQ9Ik0xNS4yNSAxMy4xNzNhMS43IDEuNyAwIDAgMC0uMTE2LS42OGMtLjA4NS0uMjE2LS4yMTMtLjQxMy0uMzc2LS41NzhzLS4zNjItLjI5MS0uNTc4LS4zNzYtLjQ0OC0uMTI0LS42OC0uMTE2Yy0uMjMyLS4wMDgtLjQ2NC4wMzEtLjY4LjExNnMtLjQxMy4yMTMtLjU3OC4zNzYtLjI5MS4zNjItLjM3Ni41NzhhMS43IDEuNyAwIDAgMC0uMTE2LjY4djdjMCAuNDcyLjE2NS44OTIuNDkyIDEuMjU4LjE2NS4xNjMuMzYyLjI5MS41NzkuMzc1cy40NDguMTIzLjY4LjExNWExLjcgMS43IDAgMCAwIDEuMjU4LS40OWMuMzI3LS4zNjYuNDkyLS43ODQuNDkyLTEuMjZ2LTd6TTEzLjUtLjVjMS45MzIgMCAzLjczNi4zNjYgNS40MTQgMS4wOTQgMS43MTMuNzMgMy4yMDggMS43MzIgNC40ODMgMy4wMDggMS4yODMgMS4yODcgMi4zMDUgMi44MSAzLjAwOCA0LjQ4NS43MyAxLjY3NiAxLjA5NCAzLjQ4MiAxLjA5NCA1LjQxM2ExMy44MiAxMy44MiAwIDAgMS0xLjA5NCA1LjQ2OWMtLjcxMyAxLjY1NC0xLjczNCAzLjE1OC0zLjAwOCA0LjQzMS0xLjI4NiAxLjI4Mi0yLjgwOSAyLjMwMy00LjQ4MyAzLjAwNi0xLjcxLjczNi0zLjU1MyAxLjEwOC01LjQxNCAxLjA5NC0xLjg3OC4wMTEtMy43MzktLjM2MS01LjQ2OS0xLjA5NGExNC4yMyAxNC4yMyAwIDAgMS03LjQzNy03LjQzN0ExMy44MiAxMy44MiAwIDAgMS0uNSAxMy41YzAtMS45MzIuMzY0LTMuNzM2IDEuMDk0LTUuNDEzLjczLTEuNzE1IDEuNzMyLTMuMjA5IDMuMDA4LTQuNDg1UzYuMzc4IDEuMzA3IDguMDMxLjU5NEExMy44MiAxMy44MiAwIDAgMSAxMy41LS41em0wIDkuNzM1YTIuMDEgMi4wMSAwIDAgMCAxLjQ3Ny0uNjAyIDIuMDEgMi4wMSAwIDAgMCAuNjAyLTEuNDc3YzAtLjU4My0uMjAxLTEuMDc0LS42MDItMS40NzUtLjE4NC0uMjEtLjQxMS0uMzc3LS42NjYtLjQ5MXMtLjUzMi0uMTctLjgxMS0uMTY2Yy0uMjc5LS4wMDQtLjU1Ni4wNTItLjgxMS4xNjZzLS40ODIuMjgxLS42NjYuNDkxYy0uNDAxLjQwMS0uNi44OTItLjYgMS40NzVzLjIgMS4wNzYuNiAxLjQ3Ny44OTMuNjAyIDEuNDc3LjYwMnoiLz4mI3hhOzwvc3ZnPg==;" vertex="1" parent="ob0Ww40zBPSw4X5EWycA-34">
          <mxGeometry x="29.5" y="35" width="28" height="28" as="geometry" />
        </mxCell>
        <mxCell id="ob0Ww40zBPSw4X5EWycA-65" value="" style="shape=image;editableCssRules=.*;verticalLabelPosition=bottom;labelBackgroundColor=default;verticalAlign=top;aspect=fixed;imageAspect=0;image=data:image/svg+xml,PHN2ZyB4bWxucz0iaHR0cDovL3d3dy53My5vcmcvMjAwMC9zdmciIHZpZXdCb3g9Ii0wLjUgLTAuNSAyOCAyOCIgaGVpZ2h0PSIyOCIgd2lkdGg9IjI4Ij4mI3hhOwkgIDxzdHlsZSB0eXBlPSJ0ZXh0L2NzcyI+LnN0MCB7IHN0b3AtY29sb3I6IHJnYig5MSwgMTE1LCAxMzkpOyB9IC5zdDEgeyBzdG9wLWNvbG9yOiByZ2IoMzQsIDUzLCA3Mik7IH0gPC9zdHlsZT4mI3hhOwk8ZGVmcz4mI3hhOwkJPGxpbmVhckdyYWRpZW50IGdyYWRpZW50VW5pdHM9InVzZXJTcGFjZU9uVXNlIiB5Mj0iMjUuMzA5IiB4Mj0iMjMuNDU0IiB5MT0iMy40NzQiIHgxPSIyLjAzOSIgaWQ9IkEiPiYjeGE7CQkJPHN0b3AgY2xhc3M9InN0MCIvPiYjeGE7CQkJPHN0b3AgY2xhc3M9InN0MSIgb2Zmc2V0PSIxIi8+JiN4YTsJCTwvbGluZWFyR3JhZGllbnQ+JiN4YTsJPC9kZWZzPiYjeGE7CTxwYXRoIGZpbGw9InVybCgjQSkiIGQ9Ik0xNS4yNSAxMy4xNzNhMS43IDEuNyAwIDAgMC0uMTE2LS42OGMtLjA4NS0uMjE2LS4yMTMtLjQxMy0uMzc2LS41NzhzLS4zNjItLjI5MS0uNTc4LS4zNzYtLjQ0OC0uMTI0LS42OC0uMTE2Yy0uMjMyLS4wMDgtLjQ2NC4wMzEtLjY4LjExNnMtLjQxMy4yMTMtLjU3OC4zNzYtLjI5MS4zNjItLjM3Ni41NzhhMS43IDEuNyAwIDAgMC0uMTE2LjY4djdjMCAuNDcyLjE2NS44OTIuNDkyIDEuMjU4LjE2NS4xNjMuMzYyLjI5MS41NzkuMzc1cy40NDguMTIzLjY4LjExNWExLjcgMS43IDAgMCAwIDEuMjU4LS40OWMuMzI3LS4zNjYuNDkyLS43ODQuNDkyLTEuMjZ2LTd6TTEzLjUtLjVjMS45MzIgMCAzLjczNi4zNjYgNS40MTQgMS4wOTQgMS43MTMuNzMgMy4yMDggMS43MzIgNC40ODMgMy4wMDggMS4yODMgMS4yODcgMi4zMDUgMi44MSAzLjAwOCA0LjQ4NS43MyAxLjY3NiAxLjA5NCAzLjQ4MiAxLjA5NCA1LjQxM2ExMy44MiAxMy44MiAwIDAgMS0xLjA5NCA1LjQ2OWMtLjcxMyAxLjY1NC0xLjczNCAzLjE1OC0zLjAwOCA0LjQzMS0xLjI4NiAxLjI4Mi0yLjgwOSAyLjMwMy00LjQ4MyAzLjAwNi0xLjcxLjczNi0zLjU1MyAxLjEwOC01LjQxNCAxLjA5NC0xLjg3OC4wMTEtMy43MzktLjM2MS01LjQ2OS0xLjA5NGExNC4yMyAxNC4yMyAwIDAgMS03LjQzNy03LjQzN0ExMy44MiAxMy44MiAwIDAgMS0uNSAxMy41YzAtMS45MzIuMzY0LTMuNzM2IDEuMDk0LTUuNDEzLjczLTEuNzE1IDEuNzMyLTMuMjA5IDMuMDA4LTQuNDg1UzYuMzc4IDEuMzA3IDguMDMxLjU5NEExMy44MiAxMy44MiAwIDAgMSAxMy41LS41em0wIDkuNzM1YTIuMDEgMi4wMSAwIDAgMCAxLjQ3Ny0uNjAyIDIuMDEgMi4wMSAwIDAgMCAuNjAyLTEuNDc3YzAtLjU4My0uMjAxLTEuMDc0LS42MDItMS40NzUtLjE4NC0uMjEtLjQxMS0uMzc3LS42NjYtLjQ5MXMtLjUzMi0uMTctLjgxMS0uMTY2Yy0uMjc5LS4wMDQtLjU1Ni4wNTItLjgxMS4xNjZzLS40ODIuMjgxLS42NjYuNDkxYy0uNDAxLjQwMS0uNi44OTItLjYgMS40NzVzLjIgMS4wNzYuNiAxLjQ3Ny44OTMuNjAyIDEuNDc3LjYwMnoiLz4mI3hhOzwvc3ZnPg==;" vertex="1" parent="ob0Ww40zBPSw4X5EWycA-34">
          <mxGeometry x="29.5" y="245" width="28" height="28" as="geometry" />
        </mxCell>
        <mxCell id="ob0Ww40zBPSw4X5EWycA-66" value="" style="shape=image;editableCssRules=.*;verticalLabelPosition=bottom;labelBackgroundColor=default;verticalAlign=top;aspect=fixed;imageAspect=0;image=data:image/svg+xml,PHN2ZyB4bWxucz0iaHR0cDovL3d3dy53My5vcmcvMjAwMC9zdmciIHZpZXdCb3g9Ii0wLjUgLTAuNSAyOCAyOCIgaGVpZ2h0PSIyOCIgd2lkdGg9IjI4Ij4mI3hhOwkgIDxzdHlsZSB0eXBlPSJ0ZXh0L2NzcyI+LnN0MCB7IHN0b3AtY29sb3I6IHJnYig5MSwgMTE1LCAxMzkpOyB9IC5zdDEgeyBzdG9wLWNvbG9yOiByZ2IoMzQsIDUzLCA3Mik7IH0gPC9zdHlsZT4mI3hhOwk8ZGVmcz4mI3hhOwkJPGxpbmVhckdyYWRpZW50IGdyYWRpZW50VW5pdHM9InVzZXJTcGFjZU9uVXNlIiB5Mj0iMjUuMzA5IiB4Mj0iMjMuNDU0IiB5MT0iMy40NzQiIHgxPSIyLjAzOSIgaWQ9IkEiPiYjeGE7CQkJPHN0b3AgY2xhc3M9InN0MCIvPiYjeGE7CQkJPHN0b3AgY2xhc3M9InN0MSIgb2Zmc2V0PSIxIi8+JiN4YTsJCTwvbGluZWFyR3JhZGllbnQ+JiN4YTsJPC9kZWZzPiYjeGE7CTxwYXRoIGZpbGw9InVybCgjQSkiIGQ9Ik0xNS4yNSAxMy4xNzNhMS43IDEuNyAwIDAgMC0uMTE2LS42OGMtLjA4NS0uMjE2LS4yMTMtLjQxMy0uMzc2LS41NzhzLS4zNjItLjI5MS0uNTc4LS4zNzYtLjQ0OC0uMTI0LS42OC0uMTE2Yy0uMjMyLS4wMDgtLjQ2NC4wMzEtLjY4LjExNnMtLjQxMy4yMTMtLjU3OC4zNzYtLjI5MS4zNjItLjM3Ni41NzhhMS43IDEuNyAwIDAgMC0uMTE2LjY4djdjMCAuNDcyLjE2NS44OTIuNDkyIDEuMjU4LjE2NS4xNjMuMzYyLjI5MS41NzkuMzc1cy40NDguMTIzLjY4LjExNWExLjcgMS43IDAgMCAwIDEuMjU4LS40OWMuMzI3LS4zNjYuNDkyLS43ODQuNDkyLTEuMjZ2LTd6TTEzLjUtLjVjMS45MzIgMCAzLjczNi4zNjYgNS40MTQgMS4wOTQgMS43MTMuNzMgMy4yMDggMS43MzIgNC40ODMgMy4wMDggMS4yODMgMS4yODcgMi4zMDUgMi44MSAzLjAwOCA0LjQ4NS43MyAxLjY3NiAxLjA5NCAzLjQ4MiAxLjA5NCA1LjQxM2ExMy44MiAxMy44MiAwIDAgMS0xLjA5NCA1LjQ2OWMtLjcxMyAxLjY1NC0xLjczNCAzLjE1OC0zLjAwOCA0LjQzMS0xLjI4NiAxLjI4Mi0yLjgwOSAyLjMwMy00LjQ4MyAzLjAwNi0xLjcxLjczNi0zLjU1MyAxLjEwOC01LjQxNCAxLjA5NC0xLjg3OC4wMTEtMy43MzktLjM2MS01LjQ2OS0xLjA5NGExNC4yMyAxNC4yMyAwIDAgMS03LjQzNy03LjQzN0ExMy44MiAxMy44MiAwIDAgMS0uNSAxMy41YzAtMS45MzIuMzY0LTMuNzM2IDEuMDk0LTUuNDEzLjczLTEuNzE1IDEuNzMyLTMuMjA5IDMuMDA4LTQuNDg1UzYuMzc4IDEuMzA3IDguMDMxLjU5NEExMy44MiAxMy44MiAwIDAgMSAxMy41LS41em0wIDkuNzM1YTIuMDEgMi4wMSAwIDAgMCAxLjQ3Ny0uNjAyIDIuMDEgMi4wMSAwIDAgMCAuNjAyLTEuNDc3YzAtLjU4My0uMjAxLTEuMDc0LS42MDItMS40NzUtLjE4NC0uMjEtLjQxMS0uMzc3LS42NjYtLjQ5MXMtLjUzMi0uMTctLjgxMS0uMTY2Yy0uMjc5LS4wMDQtLjU1Ni4wNTItLjgxMS4xNjZzLS40ODIuMjgxLS42NjYuNDkxYy0uNDAxLjQwMS0uNi44OTItLjYgMS40NzVzLjIgMS4wNzYuNiAxLjQ3Ny44OTMuNjAyIDEuNDc3LjYwMnoiLz4mI3hhOzwvc3ZnPg==;" vertex="1" parent="ob0Ww40zBPSw4X5EWycA-34">
          <mxGeometry x="29.5" y="287" width="28" height="28" as="geometry" />
        </mxCell>
        <mxCell id="ob0Ww40zBPSw4X5EWycA-67" value="" style="shape=image;editableCssRules=.*;verticalLabelPosition=bottom;labelBackgroundColor=default;verticalAlign=top;aspect=fixed;imageAspect=0;image=data:image/svg+xml,PHN2ZyB4bWxucz0iaHR0cDovL3d3dy53My5vcmcvMjAwMC9zdmciIHZpZXdCb3g9Ii0wLjUgLTAuNSAyOCAyOCIgaGVpZ2h0PSIyOCIgd2lkdGg9IjI4Ij4mI3hhOwkgIDxzdHlsZSB0eXBlPSJ0ZXh0L2NzcyI+LnN0MCB7IHN0b3AtY29sb3I6IHJnYig5MSwgMTE1LCAxMzkpOyB9IC5zdDEgeyBzdG9wLWNvbG9yOiByZ2IoMzQsIDUzLCA3Mik7IH0gPC9zdHlsZT4mI3hhOwk8ZGVmcz4mI3hhOwkJPGxpbmVhckdyYWRpZW50IGdyYWRpZW50VW5pdHM9InVzZXJTcGFjZU9uVXNlIiB5Mj0iMjUuMzA5IiB4Mj0iMjMuNDU0IiB5MT0iMy40NzQiIHgxPSIyLjAzOSIgaWQ9IkEiPiYjeGE7CQkJPHN0b3AgY2xhc3M9InN0MCIvPiYjeGE7CQkJPHN0b3AgY2xhc3M9InN0MSIgb2Zmc2V0PSIxIi8+JiN4YTsJCTwvbGluZWFyR3JhZGllbnQ+JiN4YTsJPC9kZWZzPiYjeGE7CTxwYXRoIGZpbGw9InVybCgjQSkiIGQ9Ik0xNS4yNSAxMy4xNzNhMS43IDEuNyAwIDAgMC0uMTE2LS42OGMtLjA4NS0uMjE2LS4yMTMtLjQxMy0uMzc2LS41NzhzLS4zNjItLjI5MS0uNTc4LS4zNzYtLjQ0OC0uMTI0LS42OC0uMTE2Yy0uMjMyLS4wMDgtLjQ2NC4wMzEtLjY4LjExNnMtLjQxMy4yMTMtLjU3OC4zNzYtLjI5MS4zNjItLjM3Ni41NzhhMS43IDEuNyAwIDAgMC0uMTE2LjY4djdjMCAuNDcyLjE2NS44OTIuNDkyIDEuMjU4LjE2NS4xNjMuMzYyLjI5MS41NzkuMzc1cy40NDguMTIzLjY4LjExNWExLjcgMS43IDAgMCAwIDEuMjU4LS40OWMuMzI3LS4zNjYuNDkyLS43ODQuNDkyLTEuMjZ2LTd6TTEzLjUtLjVjMS45MzIgMCAzLjczNi4zNjYgNS40MTQgMS4wOTQgMS43MTMuNzMgMy4yMDggMS43MzIgNC40ODMgMy4wMDggMS4yODMgMS4yODcgMi4zMDUgMi44MSAzLjAwOCA0LjQ4NS43MyAxLjY3NiAxLjA5NCAzLjQ4MiAxLjA5NCA1LjQxM2ExMy44MiAxMy44MiAwIDAgMS0xLjA5NCA1LjQ2OWMtLjcxMyAxLjY1NC0xLjczNCAzLjE1OC0zLjAwOCA0LjQzMS0xLjI4NiAxLjI4Mi0yLjgwOSAyLjMwMy00LjQ4MyAzLjAwNi0xLjcxLjczNi0zLjU1MyAxLjEwOC01LjQxNCAxLjA5NC0xLjg3OC4wMTEtMy43MzktLjM2MS01LjQ2OS0xLjA5NGExNC4yMyAxNC4yMyAwIDAgMS03LjQzNy03LjQzN0ExMy44MiAxMy44MiAwIDAgMS0uNSAxMy41YzAtMS45MzIuMzY0LTMuNzM2IDEuMDk0LTUuNDEzLjczLTEuNzE1IDEuNzMyLTMuMjA5IDMuMDA4LTQuNDg1UzYuMzc4IDEuMzA3IDguMDMxLjU5NEExMy44MiAxMy44MiAwIDAgMSAxMy41LS41em0wIDkuNzM1YTIuMDEgMi4wMSAwIDAgMCAxLjQ3Ny0uNjAyIDIuMDEgMi4wMSAwIDAgMCAuNjAyLTEuNDc3YzAtLjU4My0uMjAxLTEuMDc0LS42MDItMS40NzUtLjE4NC0uMjEtLjQxMS0uMzc3LS42NjYtLjQ5MXMtLjUzMi0uMTctLjgxMS0uMTY2Yy0uMjc5LS4wMDQtLjU1Ni4wNTItLjgxMS4xNjZzLS40ODIuMjgxLS42NjYuNDkxYy0uNDAxLjQwMS0uNi44OTItLjYgMS40NzVzLjIgMS4wNzYuNiAxLjQ3Ny44OTMuNjAyIDEuNDc3LjYwMnoiLz4mI3hhOzwvc3ZnPg==;" vertex="1" parent="ob0Ww40zBPSw4X5EWycA-34">
          <mxGeometry x="29.5" y="327" width="28" height="28" as="geometry" />
        </mxCell>
        <mxCell id="ob0Ww40zBPSw4X5EWycA-68" value="" style="shape=image;editableCssRules=.*;verticalLabelPosition=bottom;labelBackgroundColor=default;verticalAlign=top;aspect=fixed;imageAspect=0;image=data:image/svg+xml,PHN2ZyB4bWxucz0iaHR0cDovL3d3dy53My5vcmcvMjAwMC9zdmciIHZpZXdCb3g9Ii0wLjUgLTAuNSAyOCAyOCIgaGVpZ2h0PSIyOCIgd2lkdGg9IjI4Ij4mI3hhOwkgIDxzdHlsZSB0eXBlPSJ0ZXh0L2NzcyI+LnN0MCB7IHN0b3AtY29sb3I6IHJnYig5MSwgMTE1LCAxMzkpOyB9IC5zdDEgeyBzdG9wLWNvbG9yOiByZ2IoMzQsIDUzLCA3Mik7IH0gPC9zdHlsZT4mI3hhOwk8ZGVmcz4mI3hhOwkJPGxpbmVhckdyYWRpZW50IGdyYWRpZW50VW5pdHM9InVzZXJTcGFjZU9uVXNlIiB5Mj0iMjUuMzA5IiB4Mj0iMjMuNDU0IiB5MT0iMy40NzQiIHgxPSIyLjAzOSIgaWQ9IkEiPiYjeGE7CQkJPHN0b3AgY2xhc3M9InN0MCIvPiYjeGE7CQkJPHN0b3AgY2xhc3M9InN0MSIgb2Zmc2V0PSIxIi8+JiN4YTsJCTwvbGluZWFyR3JhZGllbnQ+JiN4YTsJPC9kZWZzPiYjeGE7CTxwYXRoIGZpbGw9InVybCgjQSkiIGQ9Ik0xNS4yNSAxMy4xNzNhMS43IDEuNyAwIDAgMC0uMTE2LS42OGMtLjA4NS0uMjE2LS4yMTMtLjQxMy0uMzc2LS41NzhzLS4zNjItLjI5MS0uNTc4LS4zNzYtLjQ0OC0uMTI0LS42OC0uMTE2Yy0uMjMyLS4wMDgtLjQ2NC4wMzEtLjY4LjExNnMtLjQxMy4yMTMtLjU3OC4zNzYtLjI5MS4zNjItLjM3Ni41NzhhMS43IDEuNyAwIDAgMC0uMTE2LjY4djdjMCAuNDcyLjE2NS44OTIuNDkyIDEuMjU4LjE2NS4xNjMuMzYyLjI5MS41NzkuMzc1cy40NDguMTIzLjY4LjExNWExLjcgMS43IDAgMCAwIDEuMjU4LS40OWMuMzI3LS4zNjYuNDkyLS43ODQuNDkyLTEuMjZ2LTd6TTEzLjUtLjVjMS45MzIgMCAzLjczNi4zNjYgNS40MTQgMS4wOTQgMS43MTMuNzMgMy4yMDggMS43MzIgNC40ODMgMy4wMDggMS4yODMgMS4yODcgMi4zMDUgMi44MSAzLjAwOCA0LjQ4NS43MyAxLjY3NiAxLjA5NCAzLjQ4MiAxLjA5NCA1LjQxM2ExMy44MiAxMy44MiAwIDAgMS0xLjA5NCA1LjQ2OWMtLjcxMyAxLjY1NC0xLjczNCAzLjE1OC0zLjAwOCA0LjQzMS0xLjI4NiAxLjI4Mi0yLjgwOSAyLjMwMy00LjQ4MyAzLjAwNi0xLjcxLjczNi0zLjU1MyAxLjEwOC01LjQxNCAxLjA5NC0xLjg3OC4wMTEtMy43MzktLjM2MS01LjQ2OS0xLjA5NGExNC4yMyAxNC4yMyAwIDAgMS03LjQzNy03LjQzN0ExMy44MiAxMy44MiAwIDAgMS0uNSAxMy41YzAtMS45MzIuMzY0LTMuNzM2IDEuMDk0LTUuNDEzLjczLTEuNzE1IDEuNzMyLTMuMjA5IDMuMDA4LTQuNDg1UzYuMzc4IDEuMzA3IDguMDMxLjU5NEExMy44MiAxMy44MiAwIDAgMSAxMy41LS41em0wIDkuNzM1YTIuMDEgMi4wMSAwIDAgMCAxLjQ3Ny0uNjAyIDIuMDEgMi4wMSAwIDAgMCAuNjAyLTEuNDc3YzAtLjU4My0uMjAxLTEuMDc0LS42MDItMS40NzUtLjE4NC0uMjEtLjQxMS0uMzc3LS42NjYtLjQ5MXMtLjUzMi0uMTctLjgxMS0uMTY2Yy0uMjc5LS4wMDQtLjU1Ni4wNTItLjgxMS4xNjZzLS40ODIuMjgxLS42NjYuNDkxYy0uNDAxLjQwMS0uNi44OTItLjYgMS40NzVzLjIgMS4wNzYuNiAxLjQ3Ny44OTMuNjAyIDEuNDc3LjYwMnoiLz4mI3hhOzwvc3ZnPg==;" vertex="1" parent="ob0Ww40zBPSw4X5EWycA-34">
          <mxGeometry x="29.5" y="367" width="28" height="28" as="geometry" />
        </mxCell>
        <mxCell id="ob0Ww40zBPSw4X5EWycA-36" value="SENTENCES" style="swimlane;whiteSpace=wrap;html=1;" vertex="1" parent="1">
          <mxGeometry x="400" y="160" width="570" height="505" as="geometry" />
        </mxCell>
        <mxCell id="ob0Ww40zBPSw4X5EWycA-37" value="" style="rounded=0;whiteSpace=wrap;html=1;" vertex="1" parent="ob0Ww40zBPSw4X5EWycA-36">
          <mxGeometry x="550" y="205" width="20" height="260" as="geometry" />
        </mxCell>
        <mxCell id="ob0Ww40zBPSw4X5EWycA-57" value="elkf;ekf;sfj;skf;kldsfsdfqqsdaadasdasd&lt;span style=&quot;background-color: transparent; color: light-dark(rgb(0, 0, 0), rgb(255, 255, 255));&quot;&gt;asdasdasdasdasdadasdasdasdasdasd&lt;/span&gt;&lt;span style=&quot;background-color: transparent; color: light-dark(rgb(0, 0, 0), rgb(255, 255, 255));&quot;&gt;adsasdasdas&lt;/span&gt;&lt;div&gt;&lt;span style=&quot;background-color: transparent; color: light-dark(rgb(0, 0, 0), rgb(255, 255, 255));&quot;&gt;dasdasdasdasdasdasdasdasdasd&lt;/span&gt;&lt;span style=&quot;background-color: transparent; color: light-dark(rgb(0, 0, 0), rgb(255, 255, 255));&quot;&gt;asdasdasdadasddsd;fjnofgnlkjglkrjgln;tlgnt;lgntl;gntlkgm&lt;/span&gt;&lt;span style=&quot;background-color: transparent; color: light-dark(rgb(0, 0, 0), rgb(255, 255, 255));&quot;&gt;fr&lt;/span&gt;&lt;/div&gt;&lt;div&gt;&lt;span style=&quot;background-color: transparent; color: light-dark(rgb(0, 0, 0), rgb(255, 255, 255));&quot;&gt;kfjrejg;lkgr;&#39;glk;rlkg;q&#39;lrkg;r&#39;lkg;rlq&#39;kg;qrlkg&#39;r;qgk&#39;qr;gk;qrkg&lt;/span&gt;&lt;/div&gt;" style="text;html=1;align=left;verticalAlign=middle;resizable=0;points=[];autosize=1;strokeColor=none;fillColor=none;" vertex="1" parent="ob0Ww40zBPSw4X5EWycA-36">
          <mxGeometry x="14" y="60" width="510" height="60" as="geometry" />
        </mxCell>
        <mxCell id="ob0Ww40zBPSw4X5EWycA-69" value="elkf;ekf;sfj;skf;kldsfsdfqqsdaadasdasd&lt;span style=&quot;background-color: transparent; color: light-dark(rgb(0, 0, 0), rgb(255, 255, 255));&quot;&gt;asdasdasdasdasdadasdasdasdasdasd&lt;/span&gt;&lt;span style=&quot;background-color: transparent; color: light-dark(rgb(0, 0, 0), rgb(255, 255, 255));&quot;&gt;adsasdasdas&lt;/span&gt;&lt;div&gt;&lt;span style=&quot;background-color: transparent; color: light-dark(rgb(0, 0, 0), rgb(255, 255, 255));&quot;&gt;dasdasdasdasdasdasdasdasdasd&lt;/span&gt;&lt;span style=&quot;background-color: transparent; color: light-dark(rgb(0, 0, 0), rgb(255, 255, 255));&quot;&gt;asdasdasdadasddsd;fjnofgnlkjglkrjgln;tlgnt;lgntl;gntlkgm&lt;/span&gt;&lt;span style=&quot;background-color: transparent; color: light-dark(rgb(0, 0, 0), rgb(255, 255, 255));&quot;&gt;fr&lt;/span&gt;&lt;/div&gt;&lt;div&gt;&lt;span style=&quot;background-color: transparent; color: light-dark(rgb(0, 0, 0), rgb(255, 255, 255));&quot;&gt;kfjrejg;lkgr;&#39;glk;rlkg;q&#39;lrkg;r&#39;lkg;rlq&#39;kg;qrlkg&#39;r;qgk&#39;qr;gk;qrkg&lt;/span&gt;&lt;/div&gt;" style="text;html=1;align=left;verticalAlign=middle;resizable=0;points=[];autosize=1;strokeColor=none;fillColor=none;" vertex="1" parent="ob0Ww40zBPSw4X5EWycA-36">
          <mxGeometry x="13.5" y="150" width="510" height="60" as="geometry" />
        </mxCell>
        <mxCell id="ob0Ww40zBPSw4X5EWycA-70" value="elkf;ekf;sfj;skf;kldsfsdfqqsdaadasdasd&lt;span style=&quot;background-color: transparent; color: light-dark(rgb(0, 0, 0), rgb(255, 255, 255));&quot;&gt;asdasdasdasdasdadasdasdasdasdasd&lt;/span&gt;&lt;span style=&quot;background-color: transparent; color: light-dark(rgb(0, 0, 0), rgb(255, 255, 255));&quot;&gt;adsasdasdas&lt;/span&gt;&lt;div&gt;&lt;span style=&quot;background-color: transparent; color: light-dark(rgb(0, 0, 0), rgb(255, 255, 255));&quot;&gt;dasdasdasdasdasdasdasdasdasd&lt;/span&gt;&lt;span style=&quot;background-color: transparent; color: light-dark(rgb(0, 0, 0), rgb(255, 255, 255));&quot;&gt;asdasdasdadasddsd;fjnofgnlkjglkrjgln;tlgnt;lgntl;gntlkgm&lt;/span&gt;&lt;span style=&quot;background-color: transparent; color: light-dark(rgb(0, 0, 0), rgb(255, 255, 255));&quot;&gt;fr&lt;/span&gt;&lt;/div&gt;&lt;div&gt;&lt;span style=&quot;background-color: transparent; color: light-dark(rgb(0, 0, 0), rgb(255, 255, 255));&quot;&gt;kfjrejg;lkgr;&#39;glk;rlkg;q&#39;lrkg;r&#39;lkg;rlq&#39;kg;qrlkg&#39;r;qgk&#39;qr;gk;qrkg&lt;/span&gt;&lt;/div&gt;" style="text;html=1;align=left;verticalAlign=middle;resizable=0;points=[];autosize=1;strokeColor=none;fillColor=none;" vertex="1" parent="ob0Ww40zBPSw4X5EWycA-36">
          <mxGeometry x="13.5" y="240" width="510" height="60" as="geometry" />
        </mxCell>
        <mxCell id="ob0Ww40zBPSw4X5EWycA-72" value="elkf;ekf;sfj;skf;kldsfsdfqqsdaadasdasd&lt;span style=&quot;background-color: transparent; color: light-dark(rgb(0, 0, 0), rgb(255, 255, 255));&quot;&gt;asdasdasdasdasdadasdasdasdasdasd&lt;/span&gt;&lt;span style=&quot;background-color: transparent; color: light-dark(rgb(0, 0, 0), rgb(255, 255, 255));&quot;&gt;adsasdasdas&lt;/span&gt;&lt;div&gt;&lt;span style=&quot;background-color: transparent; color: light-dark(rgb(0, 0, 0), rgb(255, 255, 255));&quot;&gt;dasdasdasdasdasdasdasdasdasd&lt;/span&gt;&lt;span style=&quot;background-color: transparent; color: light-dark(rgb(0, 0, 0), rgb(255, 255, 255));&quot;&gt;asdasdasdadasddsd;fjnofgnlkjglkrjgln;tlgnt;lgntl;gntlkgm&lt;/span&gt;&lt;span style=&quot;background-color: transparent; color: light-dark(rgb(0, 0, 0), rgb(255, 255, 255));&quot;&gt;fr&lt;/span&gt;&lt;/div&gt;&lt;div&gt;&lt;span style=&quot;background-color: transparent; color: light-dark(rgb(0, 0, 0), rgb(255, 255, 255));&quot;&gt;kfjrejg;lkgr;&#39;glk;rlkg;q&#39;lrkg;r&#39;lkg;rlq&#39;kg;qrlkg&#39;r;qgk&#39;qr;gk;qrkg&lt;/span&gt;&lt;/div&gt;" style="text;html=1;align=left;verticalAlign=middle;resizable=0;points=[];autosize=1;strokeColor=none;fillColor=none;" vertex="1" parent="ob0Ww40zBPSw4X5EWycA-36">
          <mxGeometry x="14" y="330" width="510" height="60" as="geometry" />
        </mxCell>
        <mxCell id="ob0Ww40zBPSw4X5EWycA-73" value="elkf;ekf;sfj;skf;kldsfsdfqqsdaadasdasd&lt;span style=&quot;background-color: transparent; color: light-dark(rgb(0, 0, 0), rgb(255, 255, 255));&quot;&gt;asdasdasdasdasdadasdasdasdasdasd&lt;/span&gt;&lt;span style=&quot;background-color: transparent; color: light-dark(rgb(0, 0, 0), rgb(255, 255, 255));&quot;&gt;adsasdasdas&lt;/span&gt;&lt;div&gt;&lt;span style=&quot;background-color: transparent; color: light-dark(rgb(0, 0, 0), rgb(255, 255, 255));&quot;&gt;dasdasdasdasdasdasdasdasdasd&lt;/span&gt;&lt;span style=&quot;background-color: transparent; color: light-dark(rgb(0, 0, 0), rgb(255, 255, 255));&quot;&gt;asdasdasdadasddsd;fjnofgnlkjglkrjgln;tlgnt;lgntl;gntlkgm&lt;/span&gt;&lt;span style=&quot;background-color: transparent; color: light-dark(rgb(0, 0, 0), rgb(255, 255, 255));&quot;&gt;fr&lt;/span&gt;&lt;/div&gt;&lt;div&gt;&lt;span style=&quot;background-color: transparent; color: light-dark(rgb(0, 0, 0), rgb(255, 255, 255));&quot;&gt;kfjrejg;lkgr;&#39;glk;rlkg;q&#39;lrkg;r&#39;lkg;rlq&#39;kg;qrlkg&#39;r;qgk&#39;qr;gk;qrkg&lt;/span&gt;&lt;/div&gt;" style="text;html=1;align=left;verticalAlign=middle;resizable=0;points=[];autosize=1;strokeColor=none;fillColor=none;" vertex="1" parent="ob0Ww40zBPSw4X5EWycA-36">
          <mxGeometry x="14" y="425" width="510" height="60" as="geometry" />
        </mxCell>
        <mxCell id="ob0Ww40zBPSw4X5EWycA-74" value="" style="shape=image;editableCssRules=.*;verticalLabelPosition=bottom;labelBackgroundColor=default;verticalAlign=top;aspect=fixed;imageAspect=0;image=data:image/svg+xml,PHN2ZyB4bWxucz0iaHR0cDovL3d3dy53My5vcmcvMjAwMC9zdmciIHZpZXdCb3g9Ii0wLjUgLTAuNSAyOCAyOCIgaGVpZ2h0PSIyOCIgd2lkdGg9IjI4Ij4mI3hhOwkgIDxzdHlsZSB0eXBlPSJ0ZXh0L2NzcyI+LnN0MCB7IHN0b3AtY29sb3I6IHJnYig5MSwgMTE1LCAxMzkpOyB9IC5zdDEgeyBzdG9wLWNvbG9yOiByZ2IoMzQsIDUzLCA3Mik7IH0gPC9zdHlsZT4mI3hhOwk8ZGVmcz4mI3hhOwkJPGxpbmVhckdyYWRpZW50IGdyYWRpZW50VW5pdHM9InVzZXJTcGFjZU9uVXNlIiB5Mj0iMjUuMzA5IiB4Mj0iMjMuNDU0IiB5MT0iMy40NzQiIHgxPSIyLjAzOSIgaWQ9IkEiPiYjeGE7CQkJPHN0b3AgY2xhc3M9InN0MCIvPiYjeGE7CQkJPHN0b3AgY2xhc3M9InN0MSIgb2Zmc2V0PSIxIi8+JiN4YTsJCTwvbGluZWFyR3JhZGllbnQ+JiN4YTsJPC9kZWZzPiYjeGE7CTxwYXRoIGZpbGw9InVybCgjQSkiIGQ9Ik0xNS4yNSAxMy4xNzNhMS43IDEuNyAwIDAgMC0uMTE2LS42OGMtLjA4NS0uMjE2LS4yMTMtLjQxMy0uMzc2LS41NzhzLS4zNjItLjI5MS0uNTc4LS4zNzYtLjQ0OC0uMTI0LS42OC0uMTE2Yy0uMjMyLS4wMDgtLjQ2NC4wMzEtLjY4LjExNnMtLjQxMy4yMTMtLjU3OC4zNzYtLjI5MS4zNjItLjM3Ni41NzhhMS43IDEuNyAwIDAgMC0uMTE2LjY4djdjMCAuNDcyLjE2NS44OTIuNDkyIDEuMjU4LjE2NS4xNjMuMzYyLjI5MS41NzkuMzc1cy40NDguMTIzLjY4LjExNWExLjcgMS43IDAgMCAwIDEuMjU4LS40OWMuMzI3LS4zNjYuNDkyLS43ODQuNDkyLTEuMjZ2LTd6TTEzLjUtLjVjMS45MzIgMCAzLjczNi4zNjYgNS40MTQgMS4wOTQgMS43MTMuNzMgMy4yMDggMS43MzIgNC40ODMgMy4wMDggMS4yODMgMS4yODcgMi4zMDUgMi44MSAzLjAwOCA0LjQ4NS43MyAxLjY3NiAxLjA5NCAzLjQ4MiAxLjA5NCA1LjQxM2ExMy44MiAxMy44MiAwIDAgMS0xLjA5NCA1LjQ2OWMtLjcxMyAxLjY1NC0xLjczNCAzLjE1OC0zLjAwOCA0LjQzMS0xLjI4NiAxLjI4Mi0yLjgwOSAyLjMwMy00LjQ4MyAzLjAwNi0xLjcxLjczNi0zLjU1MyAxLjEwOC01LjQxNCAxLjA5NC0xLjg3OC4wMTEtMy43MzktLjM2MS01LjQ2OS0xLjA5NGExNC4yMyAxNC4yMyAwIDAgMS03LjQzNy03LjQzN0ExMy44MiAxMy44MiAwIDAgMS0uNSAxMy41YzAtMS45MzIuMzY0LTMuNzM2IDEuMDk0LTUuNDEzLjczLTEuNzE1IDEuNzMyLTMuMjA5IDMuMDA4LTQuNDg1UzYuMzc4IDEuMzA3IDguMDMxLjU5NEExMy44MiAxMy44MiAwIDAgMSAxMy41LS41em0wIDkuNzM1YTIuMDEgMi4wMSAwIDAgMCAxLjQ3Ny0uNjAyIDIuMDEgMi4wMSAwIDAgMCAuNjAyLTEuNDc3YzAtLjU4My0uMjAxLTEuMDc0LS42MDItMS40NzUtLjE4NC0uMjEtLjQxMS0uMzc3LS42NjYtLjQ5MXMtLjUzMi0uMTctLjgxMS0uMTY2Yy0uMjc5LS4wMDQtLjU1Ni4wNTItLjgxMS4xNjZzLS40ODIuMjgxLS42NjYuNDkxYy0uNDAxLjQwMS0uNi44OTItLjYgMS40NzVzLjIgMS4wNzYuNiAxLjQ3Ny44OTMuNjAyIDEuNDc3LjYwMnoiLz4mI3hhOzwvc3ZnPg==;" vertex="1" parent="ob0Ww40zBPSw4X5EWycA-36">
          <mxGeometry x="14" y="410" width="15" height="15" as="geometry" />
        </mxCell>
        <mxCell id="ob0Ww40zBPSw4X5EWycA-75" value="" style="shape=image;editableCssRules=.*;verticalLabelPosition=bottom;labelBackgroundColor=default;verticalAlign=top;aspect=fixed;imageAspect=0;image=data:image/svg+xml,PHN2ZyB4bWxucz0iaHR0cDovL3d3dy53My5vcmcvMjAwMC9zdmciIHZpZXdCb3g9Ii0wLjUgLTAuNSAyOCAyOCIgaGVpZ2h0PSIyOCIgd2lkdGg9IjI4Ij4mI3hhOwkgIDxzdHlsZSB0eXBlPSJ0ZXh0L2NzcyI+LnN0MCB7IHN0b3AtY29sb3I6IHJnYig5MSwgMTE1LCAxMzkpOyB9IC5zdDEgeyBzdG9wLWNvbG9yOiByZ2IoMzQsIDUzLCA3Mik7IH0gPC9zdHlsZT4mI3hhOwk8ZGVmcz4mI3hhOwkJPGxpbmVhckdyYWRpZW50IGdyYWRpZW50VW5pdHM9InVzZXJTcGFjZU9uVXNlIiB5Mj0iMjUuMzA5IiB4Mj0iMjMuNDU0IiB5MT0iMy40NzQiIHgxPSIyLjAzOSIgaWQ9IkEiPiYjeGE7CQkJPHN0b3AgY2xhc3M9InN0MCIvPiYjeGE7CQkJPHN0b3AgY2xhc3M9InN0MSIgb2Zmc2V0PSIxIi8+JiN4YTsJCTwvbGluZWFyR3JhZGllbnQ+JiN4YTsJPC9kZWZzPiYjeGE7CTxwYXRoIGZpbGw9InVybCgjQSkiIGQ9Ik0xNS4yNSAxMy4xNzNhMS43IDEuNyAwIDAgMC0uMTE2LS42OGMtLjA4NS0uMjE2LS4yMTMtLjQxMy0uMzc2LS41NzhzLS4zNjItLjI5MS0uNTc4LS4zNzYtLjQ0OC0uMTI0LS42OC0uMTE2Yy0uMjMyLS4wMDgtLjQ2NC4wMzEtLjY4LjExNnMtLjQxMy4yMTMtLjU3OC4zNzYtLjI5MS4zNjItLjM3Ni41NzhhMS43IDEuNyAwIDAgMC0uMTE2LjY4djdjMCAuNDcyLjE2NS44OTIuNDkyIDEuMjU4LjE2NS4xNjMuMzYyLjI5MS41NzkuMzc1cy40NDguMTIzLjY4LjExNWExLjcgMS43IDAgMCAwIDEuMjU4LS40OWMuMzI3LS4zNjYuNDkyLS43ODQuNDkyLTEuMjZ2LTd6TTEzLjUtLjVjMS45MzIgMCAzLjczNi4zNjYgNS40MTQgMS4wOTQgMS43MTMuNzMgMy4yMDggMS43MzIgNC40ODMgMy4wMDggMS4yODMgMS4yODcgMi4zMDUgMi44MSAzLjAwOCA0LjQ4NS43MyAxLjY3NiAxLjA5NCAzLjQ4MiAxLjA5NCA1LjQxM2ExMy44MiAxMy44MiAwIDAgMS0xLjA5NCA1LjQ2OWMtLjcxMyAxLjY1NC0xLjczNCAzLjE1OC0zLjAwOCA0LjQzMS0xLjI4NiAxLjI4Mi0yLjgwOSAyLjMwMy00LjQ4MyAzLjAwNi0xLjcxLjczNi0zLjU1MyAxLjEwOC01LjQxNCAxLjA5NC0xLjg3OC4wMTEtMy43MzktLjM2MS01LjQ2OS0xLjA5NGExNC4yMyAxNC4yMyAwIDAgMS03LjQzNy03LjQzN0ExMy44MiAxMy44MiAwIDAgMS0uNSAxMy41YzAtMS45MzIuMzY0LTMuNzM2IDEuMDk0LTUuNDEzLjczLTEuNzE1IDEuNzMyLTMuMjA5IDMuMDA4LTQuNDg1UzYuMzc4IDEuMzA3IDguMDMxLjU5NEExMy44MiAxMy44MiAwIDAgMSAxMy41LS41em0wIDkuNzM1YTIuMDEgMi4wMSAwIDAgMCAxLjQ3Ny0uNjAyIDIuMDEgMi4wMSAwIDAgMCAuNjAyLTEuNDc3YzAtLjU4My0uMjAxLTEuMDc0LS42MDItMS40NzUtLjE4NC0uMjEtLjQxMS0uMzc3LS42NjYtLjQ5MXMtLjUzMi0uMTctLjgxMS0uMTY2Yy0uMjc5LS4wMDQtLjU1Ni4wNTItLjgxMS4xNjZzLS40ODIuMjgxLS42NjYuNDkxYy0uNDAxLjQwMS0uNi44OTItLjYgMS40NzVzLjIgMS4wNzYuNiAxLjQ3Ny44OTMuNjAyIDEuNDc3LjYwMnoiLz4mI3hhOzwvc3ZnPg==;" vertex="1" parent="ob0Ww40zBPSw4X5EWycA-36">
          <mxGeometry x="14" y="315" width="15" height="15" as="geometry" />
        </mxCell>
        <mxCell id="ob0Ww40zBPSw4X5EWycA-76" value="" style="shape=image;editableCssRules=.*;verticalLabelPosition=bottom;labelBackgroundColor=default;verticalAlign=top;aspect=fixed;imageAspect=0;image=data:image/svg+xml,PHN2ZyB4bWxucz0iaHR0cDovL3d3dy53My5vcmcvMjAwMC9zdmciIHZpZXdCb3g9Ii0wLjUgLTAuNSAyOCAyOCIgaGVpZ2h0PSIyOCIgd2lkdGg9IjI4Ij4mI3hhOwkgIDxzdHlsZSB0eXBlPSJ0ZXh0L2NzcyI+LnN0MCB7IHN0b3AtY29sb3I6IHJnYig5MSwgMTE1LCAxMzkpOyB9IC5zdDEgeyBzdG9wLWNvbG9yOiByZ2IoMzQsIDUzLCA3Mik7IH0gPC9zdHlsZT4mI3hhOwk8ZGVmcz4mI3hhOwkJPGxpbmVhckdyYWRpZW50IGdyYWRpZW50VW5pdHM9InVzZXJTcGFjZU9uVXNlIiB5Mj0iMjUuMzA5IiB4Mj0iMjMuNDU0IiB5MT0iMy40NzQiIHgxPSIyLjAzOSIgaWQ9IkEiPiYjeGE7CQkJPHN0b3AgY2xhc3M9InN0MCIvPiYjeGE7CQkJPHN0b3AgY2xhc3M9InN0MSIgb2Zmc2V0PSIxIi8+JiN4YTsJCTwvbGluZWFyR3JhZGllbnQ+JiN4YTsJPC9kZWZzPiYjeGE7CTxwYXRoIGZpbGw9InVybCgjQSkiIGQ9Ik0xNS4yNSAxMy4xNzNhMS43IDEuNyAwIDAgMC0uMTE2LS42OGMtLjA4NS0uMjE2LS4yMTMtLjQxMy0uMzc2LS41NzhzLS4zNjItLjI5MS0uNTc4LS4zNzYtLjQ0OC0uMTI0LS42OC0uMTE2Yy0uMjMyLS4wMDgtLjQ2NC4wMzEtLjY4LjExNnMtLjQxMy4yMTMtLjU3OC4zNzYtLjI5MS4zNjItLjM3Ni41NzhhMS43IDEuNyAwIDAgMC0uMTE2LjY4djdjMCAuNDcyLjE2NS44OTIuNDkyIDEuMjU4LjE2NS4xNjMuMzYyLjI5MS41NzkuMzc1cy40NDguMTIzLjY4LjExNWExLjcgMS43IDAgMCAwIDEuMjU4LS40OWMuMzI3LS4zNjYuNDkyLS43ODQuNDkyLTEuMjZ2LTd6TTEzLjUtLjVjMS45MzIgMCAzLjczNi4zNjYgNS40MTQgMS4wOTQgMS43MTMuNzMgMy4yMDggMS43MzIgNC40ODMgMy4wMDggMS4yODMgMS4yODcgMi4zMDUgMi44MSAzLjAwOCA0LjQ4NS43MyAxLjY3NiAxLjA5NCAzLjQ4MiAxLjA5NCA1LjQxM2ExMy44MiAxMy44MiAwIDAgMS0xLjA5NCA1LjQ2OWMtLjcxMyAxLjY1NC0xLjczNCAzLjE1OC0zLjAwOCA0LjQzMS0xLjI4NiAxLjI4Mi0yLjgwOSAyLjMwMy00LjQ4MyAzLjAwNi0xLjcxLjczNi0zLjU1MyAxLjEwOC01LjQxNCAxLjA5NC0xLjg3OC4wMTEtMy43MzktLjM2MS01LjQ2OS0xLjA5NGExNC4yMyAxNC4yMyAwIDAgMS03LjQzNy03LjQzN0ExMy44MiAxMy44MiAwIDAgMS0uNSAxMy41YzAtMS45MzIuMzY0LTMuNzM2IDEuMDk0LTUuNDEzLjczLTEuNzE1IDEuNzMyLTMuMjA5IDMuMDA4LTQuNDg1UzYuMzc4IDEuMzA3IDguMDMxLjU5NEExMy44MiAxMy44MiAwIDAgMSAxMy41LS41em0wIDkuNzM1YTIuMDEgMi4wMSAwIDAgMCAxLjQ3Ny0uNjAyIDIuMDEgMi4wMSAwIDAgMCAuNjAyLTEuNDc3YzAtLjU4My0uMjAxLTEuMDc0LS42MDItMS40NzUtLjE4NC0uMjEtLjQxMS0uMzc3LS42NjYtLjQ5MXMtLjUzMi0uMTctLjgxMS0uMTY2Yy0uMjc5LS4wMDQtLjU1Ni4wNTItLjgxMS4xNjZzLS40ODIuMjgxLS42NjYuNDkxYy0uNDAxLjQwMS0uNi44OTItLjYgMS40NzVzLjIgMS4wNzYuNiAxLjQ3Ny44OTMuNjAyIDEuNDc3LjYwMnoiLz4mI3hhOzwvc3ZnPg==;" vertex="1" parent="ob0Ww40zBPSw4X5EWycA-36">
          <mxGeometry x="14" y="135" width="15" height="15" as="geometry" />
        </mxCell>
        <mxCell id="ob0Ww40zBPSw4X5EWycA-77" value="" style="shape=image;editableCssRules=.*;verticalLabelPosition=bottom;labelBackgroundColor=default;verticalAlign=top;aspect=fixed;imageAspect=0;image=data:image/svg+xml,PHN2ZyB4bWxucz0iaHR0cDovL3d3dy53My5vcmcvMjAwMC9zdmciIHZpZXdCb3g9Ii0wLjUgLTAuNSAyOCAyOCIgaGVpZ2h0PSIyOCIgd2lkdGg9IjI4Ij4mI3hhOwkgIDxzdHlsZSB0eXBlPSJ0ZXh0L2NzcyI+LnN0MCB7IHN0b3AtY29sb3I6IHJnYig5MSwgMTE1LCAxMzkpOyB9IC5zdDEgeyBzdG9wLWNvbG9yOiByZ2IoMzQsIDUzLCA3Mik7IH0gPC9zdHlsZT4mI3hhOwk8ZGVmcz4mI3hhOwkJPGxpbmVhckdyYWRpZW50IGdyYWRpZW50VW5pdHM9InVzZXJTcGFjZU9uVXNlIiB5Mj0iMjUuMzA5IiB4Mj0iMjMuNDU0IiB5MT0iMy40NzQiIHgxPSIyLjAzOSIgaWQ9IkEiPiYjeGE7CQkJPHN0b3AgY2xhc3M9InN0MCIvPiYjeGE7CQkJPHN0b3AgY2xhc3M9InN0MSIgb2Zmc2V0PSIxIi8+JiN4YTsJCTwvbGluZWFyR3JhZGllbnQ+JiN4YTsJPC9kZWZzPiYjeGE7CTxwYXRoIGZpbGw9InVybCgjQSkiIGQ9Ik0xNS4yNSAxMy4xNzNhMS43IDEuNyAwIDAgMC0uMTE2LS42OGMtLjA4NS0uMjE2LS4yMTMtLjQxMy0uMzc2LS41NzhzLS4zNjItLjI5MS0uNTc4LS4zNzYtLjQ0OC0uMTI0LS42OC0uMTE2Yy0uMjMyLS4wMDgtLjQ2NC4wMzEtLjY4LjExNnMtLjQxMy4yMTMtLjU3OC4zNzYtLjI5MS4zNjItLjM3Ni41NzhhMS43IDEuNyAwIDAgMC0uMTE2LjY4djdjMCAuNDcyLjE2NS44OTIuNDkyIDEuMjU4LjE2NS4xNjMuMzYyLjI5MS41NzkuMzc1cy40NDguMTIzLjY4LjExNWExLjcgMS43IDAgMCAwIDEuMjU4LS40OWMuMzI3LS4zNjYuNDkyLS43ODQuNDkyLTEuMjZ2LTd6TTEzLjUtLjVjMS45MzIgMCAzLjczNi4zNjYgNS40MTQgMS4wOTQgMS43MTMuNzMgMy4yMDggMS43MzIgNC40ODMgMy4wMDggMS4yODMgMS4yODcgMi4zMDUgMi44MSAzLjAwOCA0LjQ4NS43MyAxLjY3NiAxLjA5NCAzLjQ4MiAxLjA5NCA1LjQxM2ExMy44MiAxMy44MiAwIDAgMS0xLjA5NCA1LjQ2OWMtLjcxMyAxLjY1NC0xLjczNCAzLjE1OC0zLjAwOCA0LjQzMS0xLjI4NiAxLjI4Mi0yLjgwOSAyLjMwMy00LjQ4MyAzLjAwNi0xLjcxLjczNi0zLjU1MyAxLjEwOC01LjQxNCAxLjA5NC0xLjg3OC4wMTEtMy43MzktLjM2MS01LjQ2OS0xLjA5NGExNC4yMyAxNC4yMyAwIDAgMS03LjQzNy03LjQzN0ExMy44MiAxMy44MiAwIDAgMS0uNSAxMy41YzAtMS45MzIuMzY0LTMuNzM2IDEuMDk0LTUuNDEzLjczLTEuNzE1IDEuNzMyLTMuMjA5IDMuMDA4LTQuNDg1UzYuMzc4IDEuMzA3IDguMDMxLjU5NEExMy44MiAxMy44MiAwIDAgMSAxMy41LS41em0wIDkuNzM1YTIuMDEgMi4wMSAwIDAgMCAxLjQ3Ny0uNjAyIDIuMDEgMi4wMSAwIDAgMCAuNjAyLTEuNDc3YzAtLjU4My0uMjAxLTEuMDc0LS42MDItMS40NzUtLjE4NC0uMjEtLjQxMS0uMzc3LS42NjYtLjQ5MXMtLjUzMi0uMTctLjgxMS0uMTY2Yy0uMjc5LS4wMDQtLjU1Ni4wNTItLjgxMS4xNjZzLS40ODIuMjgxLS42NjYuNDkxYy0uNDAxLjQwMS0uNi44OTItLjYgMS40NzVzLjIgMS4wNzYuNiAxLjQ3Ny44OTMuNjAyIDEuNDc3LjYwMnoiLz4mI3hhOzwvc3ZnPg==;" vertex="1" parent="ob0Ww40zBPSw4X5EWycA-36">
          <mxGeometry x="14" y="45" width="15" height="15" as="geometry" />
        </mxCell>
        <mxCell id="ob0Ww40zBPSw4X5EWycA-46" value="" style="shape=flexArrow;endArrow=classic;html=1;rounded=0;endWidth=12.727272727272727;endSize=6.197402597402597;fillColor=#76608a;strokeColor=#432D57;" edge="1" parent="ob0Ww40zBPSw4X5EWycA-36">
          <mxGeometry width="50" height="50" relative="1" as="geometry">
            <mxPoint x="59" y="370" as="sourcePoint" />
            <mxPoint x="29" y="330" as="targetPoint" />
          </mxGeometry>
        </mxCell>
        <mxCell id="ob0Ww40zBPSw4X5EWycA-47" value="Language Assistant comment&amp;nbsp;" style="rounded=1;whiteSpace=wrap;html=1;" vertex="1" parent="ob0Ww40zBPSw4X5EWycA-36">
          <mxGeometry x="160" y="195" width="323" height="280" as="geometry" />
        </mxCell>
        <mxCell id="ob0Ww40zBPSw4X5EWycA-49" value="SUBMIT" style="rounded=1;whiteSpace=wrap;html=1;" vertex="1" parent="1">
          <mxGeometry x="625" y="760" width="120" height="30" as="geometry" />
        </mxCell>
        <mxCell id="ob0Ww40zBPSw4X5EWycA-50" value="input field" style="rounded=0;whiteSpace=wrap;html=1;" vertex="1" parent="1">
          <mxGeometry x="400" y="680" width="570" height="60" as="geometry" />
        </mxCell>
        <mxCell id="ob0Ww40zBPSw4X5EWycA-52" value="SBM" style="swimlane;whiteSpace=wrap;html=1;" vertex="1" parent="1">
          <mxGeometry x="80" y="155" width="75" height="585" as="geometry" />
        </mxCell>
        <mxCell id="ob0Ww40zBPSw4X5EWycA-53" value="NEW" style="text;html=1;align=center;verticalAlign=middle;resizable=0;points=[];autosize=1;strokeColor=none;fillColor=none;" vertex="1" parent="ob0Ww40zBPSw4X5EWycA-52">
          <mxGeometry x="10" y="35" width="50" height="30" as="geometry" />
        </mxCell>
        <mxCell id="ob0Ww40zBPSw4X5EWycA-54" value="SETTINGS" style="text;html=1;align=center;verticalAlign=middle;resizable=0;points=[];autosize=1;strokeColor=none;fillColor=none;" vertex="1" parent="ob0Ww40zBPSw4X5EWycA-52">
          <mxGeometry x="-5" y="60" width="80" height="30" as="geometry" />
        </mxCell>
        <mxCell id="ob0Ww40zBPSw4X5EWycA-55" value="ALL" style="text;html=1;align=center;verticalAlign=middle;resizable=0;points=[];autosize=1;strokeColor=none;fillColor=none;" vertex="1" parent="ob0Ww40zBPSw4X5EWycA-52">
          <mxGeometry x="15" y="90" width="40" height="30" as="geometry" />
        </mxCell>
        <mxCell id="ob0Ww40zBPSw4X5EWycA-56" value="TITLE" style="text;html=1;align=center;verticalAlign=middle;resizable=0;points=[];autosize=1;strokeColor=none;fillColor=none;" vertex="1" parent="1">
          <mxGeometry x="162.5" y="110" width="60" height="30" as="geometry" />
        </mxCell>
        <mxCell id="ob0Ww40zBPSw4X5EWycA-51" value="" style="shape=flexArrow;endArrow=classic;html=1;rounded=0;endWidth=12.727272727272727;endSize=6.197402597402597;fillColor=#76608a;strokeColor=#432D57;" edge="1" parent="1">
          <mxGeometry width="50" height="50" relative="1" as="geometry">
            <mxPoint x="260.5" y="420" as="sourcePoint" />
            <mxPoint x="230.5" y="380" as="targetPoint" />
          </mxGeometry>
        </mxCell>
        <mxCell id="ob0Ww40zBPSw4X5EWycA-60" value="" style="shape=image;editableCssRules=.*;verticalLabelPosition=bottom;labelBackgroundColor=default;verticalAlign=top;aspect=fixed;imageAspect=0;image=data:image/svg+xml,PHN2ZyB4bWxucz0iaHR0cDovL3d3dy53My5vcmcvMjAwMC9zdmciIHZpZXdCb3g9Ii0wLjUgLTAuNSAyOCAyOCIgaGVpZ2h0PSIyOCIgd2lkdGg9IjI4IiBzdHlsZT0iY29sb3Itc2NoZW1lOiBsaWdodCBkYXJrOyI+JiN4YTsJICA8c3R5bGUgdHlwZT0idGV4dC9jc3MiPi5zdDAgeyBzdG9wLWNvbG9yOiBsaWdodC1kYXJrKHJnYigyNTUsIDAsIDApLCByZ2IoMjU1LCAxNDQsIDE0NCkpOyB9IC5zdDEgeyBzdG9wLWNvbG9yOiB0cmFuc3BhcmVudDsgfSA8L3N0eWxlPiYjeGE7CTxkZWZzPiYjeGE7CQk8bGluZWFyR3JhZGllbnQgZ3JhZGllbnRVbml0cz0idXNlclNwYWNlT25Vc2UiIHkyPSIyNS4zMDkiIHgyPSIyMy40NTQiIHkxPSIzLjQ3NCIgeDE9IjIuMDM5IiBpZD0iQSI+JiN4YTsJCQk8c3RvcCBjbGFzcz0ic3QwIi8+JiN4YTsJCQk8c3RvcCBjbGFzcz0ic3QxIiBvZmZzZXQ9IjEiLz4mI3hhOwkJPC9saW5lYXJHcmFkaWVudD4mI3hhOwk8L2RlZnM+JiN4YTsJPHBhdGggZmlsbD0idXJsKCNBKSIgZD0iTTE1LjI1IDEzLjE3M2ExLjcgMS43IDAgMCAwLS4xMTYtLjY4Yy0uMDg1LS4yMTYtLjIxMy0uNDEzLS4zNzYtLjU3OHMtLjM2Mi0uMjkxLS41NzgtLjM3Ni0uNDQ4LS4xMjQtLjY4LS4xMTZjLS4yMzItLjAwOC0uNDY0LjAzMS0uNjguMTE2cy0uNDEzLjIxMy0uNTc4LjM3Ni0uMjkxLjM2Mi0uMzc2LjU3OGExLjcgMS43IDAgMCAwLS4xMTYuNjh2N2MwIC40NzIuMTY1Ljg5Mi40OTIgMS4yNTguMTY1LjE2My4zNjIuMjkxLjU3OS4zNzVzLjQ0OC4xMjMuNjguMTE1YTEuNyAxLjcgMCAwIDAgMS4yNTgtLjQ5Yy4zMjctLjM2Ni40OTItLjc4NC40OTItMS4yNnYtN3pNMTMuNS0uNWMxLjkzMiAwIDMuNzM2LjM2NiA1LjQxNCAxLjA5NCAxLjcxMy43MyAzLjIwOCAxLjczMiA0LjQ4MyAzLjAwOCAxLjI4MyAxLjI4NyAyLjMwNSAyLjgxIDMuMDA4IDQuNDg1LjczIDEuNjc2IDEuMDk0IDMuNDgyIDEuMDk0IDUuNDEzYTEzLjgyIDEzLjgyIDAgMCAxLTEuMDk0IDUuNDY5Yy0uNzEzIDEuNjU0LTEuNzM0IDMuMTU4LTMuMDA4IDQuNDMxLTEuMjg2IDEuMjgyLTIuODA5IDIuMzAzLTQuNDgzIDMuMDA2LTEuNzEuNzM2LTMuNTUzIDEuMTA4LTUuNDE0IDEuMDk0LTEuODc4LjAxMS0zLjczOS0uMzYxLTUuNDY5LTEuMDk0YTE0LjIzIDE0LjIzIDAgMCAxLTcuNDM3LTcuNDM3QTEzLjgyIDEzLjgyIDAgMCAxLS41IDEzLjVjMC0xLjkzMi4zNjQtMy43MzYgMS4wOTQtNS40MTMuNzMtMS43MTUgMS43MzItMy4yMDkgMy4wMDgtNC40ODVTNi4zNzggMS4zMDcgOC4wMzEuNTk0QTEzLjgyIDEzLjgyIDAgMCAxIDEzLjUtLjV6bTAgOS43MzVhMi4wMSAyLjAxIDAgMCAwIDEuNDc3LS42MDIgMi4wMSAyLjAxIDAgMCAwIC42MDItMS40NzdjMC0uNTgzLS4yMDEtMS4wNzQtLjYwMi0xLjQ3NS0uMTg0LS4yMS0uNDExLS4zNzctLjY2Ni0uNDkxcy0uNTMyLS4xNy0uODExLS4xNjZjLS4yNzktLjAwNC0uNTU2LjA1Mi0uODExLjE2NnMtLjQ4Mi4yODEtLjY2Ni40OTFjLS40MDEuNDAxLS42Ljg5Mi0uNiAxLjQ3NXMuMiAxLjA3Ni42IDEuNDc3Ljg5My42MDIgMS40NzcuNjAyeiIvPiYjeGE7PC9zdmc+;fontColor=#FF0000;" vertex="1" parent="1">
          <mxGeometry x="210" y="360" width="28" height="28" as="geometry" />
        </mxCell>
        <mxCell id="ob0Ww40zBPSw4X5EWycA-14" value="some phrase" style="text;html=1;align=center;verticalAlign=middle;resizable=0;points=[];autosize=1;strokeColor=none;fillColor=none;fontColor=#FF0000;" vertex="1" parent="1">
          <mxGeometry x="238" y="360" width="90" height="30" as="geometry" />
        </mxCell>
        <mxCell id="ob0Ww40zBPSw4X5EWycA-48" value="Meaning&lt;div&gt;&lt;br&gt;&lt;/div&gt;&lt;div&gt;&lt;span style=&quot;background-color: transparent; color: light-dark(rgb(0, 0, 0), rgb(255, 255, 255));&quot;&gt;language assistant comment&lt;/span&gt;&lt;/div&gt;" style="rounded=1;whiteSpace=wrap;html=1;align=left;" vertex="1" parent="1">
          <mxGeometry x="275" y="330" width="277.5" height="65" as="geometry" />
        </mxCell>
        <mxCell id="ob0Ww40zBPSw4X5EWycA-78" value="&lt;div style=&quot;color: rgb(187, 187, 187); background-color: rgb(43, 43, 43); font-family: Menlo, Monaco, &amp;quot;Courier New&amp;quot;, monospace; line-height: 18px; white-space-collapse: preserve;&quot;&gt;&lt;div&gt;&lt;span style=&quot;color: rgb(169, 183, 198);&quot;&gt;{&lt;/span&gt;&lt;/div&gt;&lt;div&gt;&lt;span style=&quot;color: rgb(169, 183, 198);&quot;&gt;    &lt;/span&gt;&lt;span style=&quot;color: rgb(152, 118, 170);&quot;&gt;&quot;id&quot;&lt;/span&gt;&lt;span style=&quot;color: rgb(204, 120, 50);&quot;&gt;:&lt;/span&gt;&lt;span style=&quot;color: rgb(169, 183, 198);&quot;&gt; &lt;/span&gt;&lt;span style=&quot;color: rgb(106, 135, 89);&quot;&gt;&quot;str&quot;&lt;/span&gt;&lt;span style=&quot;color: rgb(204, 120, 50);&quot;&gt;,&lt;/span&gt;&lt;/div&gt;&lt;div&gt;&lt;span style=&quot;color: rgb(169, 183, 198);&quot;&gt;    &lt;/span&gt;&lt;span style=&quot;color: rgb(152, 118, 170);&quot;&gt;&quot;writings&quot;&lt;/span&gt;&lt;span style=&quot;color: rgb(204, 120, 50);&quot;&gt;:&lt;/span&gt;&lt;span style=&quot;color: rgb(169, 183, 198);&quot;&gt; [&lt;/span&gt;&lt;/div&gt;&lt;div&gt;&lt;span style=&quot;color: rgb(169, 183, 198);&quot;&gt;        {&lt;/span&gt;&lt;/div&gt;&lt;div&gt;&lt;span style=&quot;color: rgb(169, 183, 198);&quot;&gt;            &lt;/span&gt;&lt;span style=&quot;color: rgb(152, 118, 170);&quot;&gt;&quot;id&quot;&lt;/span&gt;&lt;span style=&quot;color: rgb(204, 120, 50);&quot;&gt;:&lt;/span&gt;&lt;span style=&quot;color: rgb(169, 183, 198);&quot;&gt; &lt;/span&gt;&lt;span style=&quot;color: rgb(104, 151, 187);&quot;&gt;1&lt;/span&gt;&lt;span style=&quot;color: rgb(204, 120, 50);&quot;&gt;,&lt;/span&gt;&lt;/div&gt;&lt;div&gt;&lt;span style=&quot;color: rgb(169, 183, 198);&quot;&gt;            &lt;/span&gt;&lt;span style=&quot;color: rgb(152, 118, 170);&quot;&gt;&quot;text&quot;&lt;/span&gt;&lt;span style=&quot;color: rgb(204, 120, 50);&quot;&gt;:&lt;/span&gt;&lt;span style=&quot;color: rgb(169, 183, 198);&quot;&gt; &lt;/span&gt;&lt;span style=&quot;color: rgb(106, 135, 89);&quot;&gt;&quot;str&quot;&lt;/span&gt;&lt;span style=&quot;color: rgb(204, 120, 50);&quot;&gt;,&lt;/span&gt;&lt;/div&gt;&lt;div&gt;&lt;span style=&quot;color: rgb(169, 183, 198);&quot;&gt;            &lt;/span&gt;&lt;span style=&quot;color: rgb(152, 118, 170);&quot;&gt;&quot;assistantComment&quot;&lt;/span&gt;&lt;span style=&quot;color: rgb(204, 120, 50);&quot;&gt;:&lt;/span&gt;&lt;span style=&quot;color: rgb(169, 183, 198);&quot;&gt; &lt;/span&gt;&lt;span style=&quot;color: rgb(106, 135, 89);&quot;&gt;&quot;str&quot;&lt;/span&gt;&lt;/div&gt;&lt;div&gt;&lt;span style=&quot;color: rgb(169, 183, 198);&quot;&gt;        }&lt;/span&gt;&lt;span style=&quot;color: rgb(204, 120, 50);&quot;&gt;,&lt;/span&gt;&lt;/div&gt;&lt;div&gt;&lt;span style=&quot;color: rgb(169, 183, 198);&quot;&gt;        {&lt;/span&gt;&lt;/div&gt;&lt;div&gt;&lt;span style=&quot;color: rgb(169, 183, 198);&quot;&gt;            &lt;/span&gt;&lt;span style=&quot;color: rgb(152, 118, 170);&quot;&gt;&quot;id&quot;&lt;/span&gt;&lt;span style=&quot;color: rgb(204, 120, 50);&quot;&gt;:&lt;/span&gt;&lt;span style=&quot;color: rgb(169, 183, 198);&quot;&gt; &lt;/span&gt;&lt;span style=&quot;color: rgb(104, 151, 187);&quot;&gt;2&lt;/span&gt;&lt;span style=&quot;color: rgb(204, 120, 50);&quot;&gt;,&lt;/span&gt;&lt;/div&gt;&lt;div&gt;&lt;span style=&quot;color: rgb(169, 183, 198);&quot;&gt;            &lt;/span&gt;&lt;span style=&quot;color: rgb(152, 118, 170);&quot;&gt;&quot;text&quot;&lt;/span&gt;&lt;span style=&quot;color: rgb(204, 120, 50);&quot;&gt;:&lt;/span&gt;&lt;span style=&quot;color: rgb(169, 183, 198);&quot;&gt; &lt;/span&gt;&lt;span style=&quot;color: rgb(106, 135, 89);&quot;&gt;&quot;str&quot;&lt;/span&gt;&lt;span style=&quot;color: rgb(204, 120, 50);&quot;&gt;,&lt;/span&gt;&lt;/div&gt;&lt;div&gt;&lt;span style=&quot;color: rgb(169, 183, 198);&quot;&gt;            &lt;/span&gt;&lt;span style=&quot;color: rgb(152, 118, 170);&quot;&gt;&quot;assistantComment&quot;&lt;/span&gt;&lt;span style=&quot;color: rgb(204, 120, 50);&quot;&gt;:&lt;/span&gt;&lt;span style=&quot;color: rgb(169, 183, 198);&quot;&gt; &lt;/span&gt;&lt;span style=&quot;color: rgb(106, 135, 89);&quot;&gt;&quot;str&quot;&lt;/span&gt;&lt;/div&gt;&lt;div&gt;&lt;span style=&quot;color: rgb(169, 183, 198);&quot;&gt;        }&lt;/span&gt;&lt;/div&gt;&lt;div&gt;&lt;span style=&quot;color: rgb(169, 183, 198);&quot;&gt;    ]&lt;/span&gt;&lt;span style=&quot;color: rgb(204, 120, 50);&quot;&gt;,&lt;/span&gt;&lt;/div&gt;&lt;div&gt;&lt;span style=&quot;color: rgb(169, 183, 198);&quot;&gt;    &lt;/span&gt;&lt;span style=&quot;color: rgb(152, 118, 170);&quot;&gt;&quot;phrases&quot;&lt;/span&gt;&lt;span style=&quot;color: rgb(204, 120, 50);&quot;&gt;:&lt;/span&gt;&lt;span style=&quot;color: rgb(169, 183, 198);&quot;&gt; [&lt;/span&gt;&lt;/div&gt;&lt;div&gt;&lt;span style=&quot;color: rgb(169, 183, 198);&quot;&gt;        {&lt;/span&gt;&lt;/div&gt;&lt;div&gt;&lt;span style=&quot;color: rgb(169, 183, 198);&quot;&gt;            &lt;/span&gt;&lt;span style=&quot;color: rgb(152, 118, 170);&quot;&gt;&quot;id&quot;&lt;/span&gt;&lt;span style=&quot;color: rgb(204, 120, 50);&quot;&gt;:&lt;/span&gt;&lt;span style=&quot;color: rgb(169, 183, 198);&quot;&gt; &lt;/span&gt;&lt;span style=&quot;color: rgb(106, 135, 89);&quot;&gt;&quot;str&quot;&lt;/span&gt;&lt;span style=&quot;color: rgb(204, 120, 50);&quot;&gt;,&lt;/span&gt;&lt;/div&gt;&lt;div&gt;&lt;span style=&quot;color: rgb(169, 183, 198);&quot;&gt;            &lt;/span&gt;&lt;span style=&quot;color: rgb(152, 118, 170);&quot;&gt;&quot;phrase&quot;&lt;/span&gt;&lt;span style=&quot;color: rgb(204, 120, 50);&quot;&gt;:&lt;/span&gt;&lt;span style=&quot;color: rgb(169, 183, 198);&quot;&gt; &lt;/span&gt;&lt;span style=&quot;color: rgb(106, 135, 89);&quot;&gt;&quot;str&quot;&lt;/span&gt;&lt;span style=&quot;color: rgb(204, 120, 50);&quot;&gt;,&lt;/span&gt;&lt;/div&gt;&lt;div&gt;&lt;span style=&quot;color: rgb(169, 183, 198);&quot;&gt;            &lt;/span&gt;&lt;span style=&quot;color: rgb(152, 118, 170);&quot;&gt;&quot;meaning&quot;&lt;/span&gt;&lt;span style=&quot;color: rgb(204, 120, 50);&quot;&gt;:&lt;/span&gt;&lt;span style=&quot;color: rgb(169, 183, 198);&quot;&gt; &lt;/span&gt;&lt;span style=&quot;color: rgb(106, 135, 89);&quot;&gt;&quot;str&quot;&lt;/span&gt;&lt;span style=&quot;color: rgb(204, 120, 50);&quot;&gt;,&lt;/span&gt;&lt;/div&gt;&lt;div&gt;&lt;span style=&quot;color: rgb(169, 183, 198);&quot;&gt;            &lt;/span&gt;&lt;span style=&quot;color: rgb(152, 118, 170);&quot;&gt;&quot;assistantComment&quot;&lt;/span&gt;&lt;span style=&quot;color: rgb(204, 120, 50);&quot;&gt;:&lt;/span&gt;&lt;span style=&quot;color: rgb(169, 183, 198);&quot;&gt; &lt;/span&gt;&lt;span style=&quot;color: rgb(106, 135, 89);&quot;&gt;&quot;str&quot;&lt;/span&gt;&lt;span style=&quot;color: rgb(204, 120, 50);&quot;&gt;,&lt;/span&gt;&lt;/div&gt;&lt;div&gt;&lt;span style=&quot;color: rgb(169, 183, 198);&quot;&gt;            &lt;/span&gt;&lt;span style=&quot;color: rgb(152, 118, 170);&quot;&gt;&quot;status&quot;&lt;/span&gt;&lt;span style=&quot;color: rgb(204, 120, 50);&quot;&gt;:&lt;/span&gt;&lt;span style=&quot;color: rgb(169, 183, 198);&quot;&gt; &lt;/span&gt;&lt;span style=&quot;color: rgb(106, 135, 89);&quot;&gt;&quot;bad / none&quot;&lt;/span&gt;&lt;/div&gt;&lt;div&gt;&lt;span style=&quot;color: rgb(169, 183, 198);&quot;&gt;        }&lt;/span&gt;&lt;/div&gt;&lt;div&gt;&lt;span style=&quot;color: rgb(169, 183, 198);&quot;&gt;    ]&lt;/span&gt;&lt;/div&gt;&lt;div&gt;&lt;span style=&quot;color: rgb(169, 183, 198);&quot;&gt;}&lt;/span&gt;&lt;/div&gt;&lt;/div&gt;" style="text;html=1;align=left;verticalAlign=middle;resizable=0;points=[];autosize=1;strokeColor=none;fillColor=none;" vertex="1" parent="1">
          <mxGeometry x="1000" y="220" width="300" height="450" as="geometry" />
        </mxCell>
        <mxCell id="ob0Ww40zBPSw4X5EWycA-79" value="UI" style="shape=umlLifeline;perimeter=lifelinePerimeter;whiteSpace=wrap;html=1;container=1;dropTarget=0;collapsible=0;recursiveResize=0;outlineConnect=0;portConstraint=eastwest;newEdgeStyle={&quot;curved&quot;:0,&quot;rounded&quot;:0};" vertex="1" parent="1">
          <mxGeometry x="70" y="990" width="100" height="490" as="geometry" />
        </mxCell>
        <mxCell id="ob0Ww40zBPSw4X5EWycA-80" value="" style="html=1;points=[[0,0,0,0,5],[0,1,0,0,-5],[1,0,0,0,5],[1,1,0,0,-5]];perimeter=orthogonalPerimeter;outlineConnect=0;targetShapes=umlLifeline;portConstraint=eastwest;newEdgeStyle={&quot;curved&quot;:0,&quot;rounded&quot;:0};" vertex="1" parent="ob0Ww40zBPSw4X5EWycA-79">
          <mxGeometry x="45" y="110" width="10" height="80" as="geometry" />
        </mxCell>
        <mxCell id="ob0Ww40zBPSw4X5EWycA-81" value="" style="html=1;points=[[0,0,0,0,5],[0,1,0,0,-5],[1,0,0,0,5],[1,1,0,0,-5]];perimeter=orthogonalPerimeter;outlineConnect=0;targetShapes=umlLifeline;portConstraint=eastwest;newEdgeStyle={&quot;curved&quot;:0,&quot;rounded&quot;:0};" vertex="1" parent="ob0Ww40zBPSw4X5EWycA-79">
          <mxGeometry x="45" y="230" width="10" height="210" as="geometry" />
        </mxCell>
        <mxCell id="ob0Ww40zBPSw4X5EWycA-82" value="BE" style="shape=umlLifeline;perimeter=lifelinePerimeter;whiteSpace=wrap;html=1;container=1;dropTarget=0;collapsible=0;recursiveResize=0;outlineConnect=0;portConstraint=eastwest;newEdgeStyle={&quot;curved&quot;:0,&quot;rounded&quot;:0};" vertex="1" parent="1">
          <mxGeometry x="330" y="990" width="100" height="490" as="geometry" />
        </mxCell>
        <mxCell id="ob0Ww40zBPSw4X5EWycA-83" value="" style="html=1;points=[[0,0,0,0,5],[0,1,0,0,-5],[1,0,0,0,5],[1,1,0,0,-5]];perimeter=orthogonalPerimeter;outlineConnect=0;targetShapes=umlLifeline;portConstraint=eastwest;newEdgeStyle={&quot;curved&quot;:0,&quot;rounded&quot;:0};" vertex="1" parent="ob0Ww40zBPSw4X5EWycA-82">
          <mxGeometry x="45" y="110" width="10" height="70" as="geometry" />
        </mxCell>
        <mxCell id="ob0Ww40zBPSw4X5EWycA-84" value="" style="html=1;points=[[0,0,0,0,5],[0,1,0,0,-5],[1,0,0,0,5],[1,1,0,0,-5]];perimeter=orthogonalPerimeter;outlineConnect=0;targetShapes=umlLifeline;portConstraint=eastwest;newEdgeStyle={&quot;curved&quot;:0,&quot;rounded&quot;:0};" vertex="1" parent="ob0Ww40zBPSw4X5EWycA-82">
          <mxGeometry x="45" y="250" width="10" height="160" as="geometry" />
        </mxCell>
        <mxCell id="ob0Ww40zBPSw4X5EWycA-85" value="DB" style="shape=umlLifeline;perimeter=lifelinePerimeter;whiteSpace=wrap;html=1;container=1;dropTarget=0;collapsible=0;recursiveResize=0;outlineConnect=0;portConstraint=eastwest;newEdgeStyle={&quot;curved&quot;:0,&quot;rounded&quot;:0};" vertex="1" parent="1">
          <mxGeometry x="610" y="990" width="100" height="490" as="geometry" />
        </mxCell>
        <mxCell id="ob0Ww40zBPSw4X5EWycA-86" value="" style="html=1;points=[[0,0,0,0,5],[0,1,0,0,-5],[1,0,0,0,5],[1,1,0,0,-5]];perimeter=orthogonalPerimeter;outlineConnect=0;targetShapes=umlLifeline;portConstraint=eastwest;newEdgeStyle={&quot;curved&quot;:0,&quot;rounded&quot;:0};" vertex="1" parent="ob0Ww40zBPSw4X5EWycA-85">
          <mxGeometry x="45" y="125" width="10" height="40" as="geometry" />
        </mxCell>
        <mxCell id="ob0Ww40zBPSw4X5EWycA-88" value="" style="html=1;points=[[0,0,0,0,5],[0,1,0,0,-5],[1,0,0,0,5],[1,1,0,0,-5]];perimeter=orthogonalPerimeter;outlineConnect=0;targetShapes=umlLifeline;portConstraint=eastwest;newEdgeStyle={&quot;curved&quot;:0,&quot;rounded&quot;:0};" vertex="1" parent="ob0Ww40zBPSw4X5EWycA-85">
          <mxGeometry x="45" y="349" width="10" height="40" as="geometry" />
        </mxCell>
        <mxCell id="ob0Ww40zBPSw4X5EWycA-89" value="LLM" style="shape=umlLifeline;perimeter=lifelinePerimeter;whiteSpace=wrap;html=1;container=1;dropTarget=0;collapsible=0;recursiveResize=0;outlineConnect=0;portConstraint=eastwest;newEdgeStyle={&quot;curved&quot;:0,&quot;rounded&quot;:0};" vertex="1" parent="1">
          <mxGeometry x="890" y="990" width="100" height="490" as="geometry" />
        </mxCell>
        <mxCell id="ob0Ww40zBPSw4X5EWycA-90" value="" style="html=1;points=[[0,0,0,0,5],[0,1,0,0,-5],[1,0,0,0,5],[1,1,0,0,-5]];perimeter=orthogonalPerimeter;outlineConnect=0;targetShapes=umlLifeline;portConstraint=eastwest;newEdgeStyle={&quot;curved&quot;:0,&quot;rounded&quot;:0};" vertex="1" parent="ob0Ww40zBPSw4X5EWycA-89">
          <mxGeometry x="45" y="269" width="10" height="21" as="geometry" />
        </mxCell>
        <mxCell id="ob0Ww40zBPSw4X5EWycA-100" value="" style="html=1;points=[[0,0,0,0,5],[0,1,0,0,-5],[1,0,0,0,5],[1,1,0,0,-5]];perimeter=orthogonalPerimeter;outlineConnect=0;targetShapes=umlLifeline;portConstraint=eastwest;newEdgeStyle={&quot;curved&quot;:0,&quot;rounded&quot;:0};" vertex="1" parent="ob0Ww40zBPSw4X5EWycA-89">
          <mxGeometry x="45" y="308" width="10" height="21" as="geometry" />
        </mxCell>
        <mxCell id="ob0Ww40zBPSw4X5EWycA-91" value="press new" style="html=1;verticalAlign=bottom;endArrow=block;curved=0;rounded=0;" edge="1" parent="1" source="ob0Ww40zBPSw4X5EWycA-80" target="ob0Ww40zBPSw4X5EWycA-83">
          <mxGeometry width="80" relative="1" as="geometry">
            <mxPoint x="310" y="1280" as="sourcePoint" />
            <mxPoint x="210" y="1270" as="targetPoint" />
            <Array as="points">
              <mxPoint x="190" y="1120" />
            </Array>
          </mxGeometry>
        </mxCell>
        <mxCell id="ob0Ww40zBPSw4X5EWycA-92" value="get words and settings" style="html=1;verticalAlign=bottom;endArrow=block;curved=0;rounded=0;" edge="1" parent="1" source="ob0Ww40zBPSw4X5EWycA-83" target="ob0Ww40zBPSw4X5EWycA-86">
          <mxGeometry width="80" relative="1" as="geometry">
            <mxPoint x="460" y="970" as="sourcePoint" />
            <mxPoint x="540" y="970" as="targetPoint" />
          </mxGeometry>
        </mxCell>
        <mxCell id="ob0Ww40zBPSw4X5EWycA-93" value="writing training page" style="html=1;verticalAlign=bottom;endArrow=block;curved=0;rounded=0;" edge="1" parent="1">
          <mxGeometry width="80" relative="1" as="geometry">
            <mxPoint x="375" y="1158.0000000000002" as="sourcePoint" />
            <mxPoint x="125" y="1158.0000000000002" as="targetPoint" />
          </mxGeometry>
        </mxCell>
        <mxCell id="ob0Ww40zBPSw4X5EWycA-94" value="submit weiting" style="html=1;verticalAlign=bottom;endArrow=block;curved=0;rounded=0;" edge="1" parent="1">
          <mxGeometry width="80" relative="1" as="geometry">
            <mxPoint x="125" y="1260" as="sourcePoint" />
            <mxPoint x="375" y="1260" as="targetPoint" />
          </mxGeometry>
        </mxCell>
        <mxCell id="ob0Ww40zBPSw4X5EWycA-96" value="submit to llm" style="html=1;verticalAlign=bottom;endArrow=block;curved=0;rounded=0;entryX=0;entryY=0;entryDx=0;entryDy=5;entryPerimeter=0;" edge="1" parent="1">
          <mxGeometry width="80" relative="1" as="geometry">
            <mxPoint x="385" y="1271" as="sourcePoint" />
            <mxPoint x="935" y="1271" as="targetPoint" />
          </mxGeometry>
        </mxCell>
        <mxCell id="ob0Ww40zBPSw4X5EWycA-97" value="update training state, get new phrases" style="html=1;verticalAlign=bottom;endArrow=block;curved=0;rounded=0;" edge="1" parent="1">
          <mxGeometry width="80" relative="1" as="geometry">
            <mxPoint x="385" y="1358" as="sourcePoint" />
            <mxPoint x="655" y="1358" as="targetPoint" />
          </mxGeometry>
        </mxCell>
        <mxCell id="ob0Ww40zBPSw4X5EWycA-98" value="writing training page" style="html=1;verticalAlign=bottom;endArrow=block;curved=0;rounded=0;" edge="1" parent="1">
          <mxGeometry width="80" relative="1" as="geometry">
            <mxPoint x="375" y="1370.0000000000002" as="sourcePoint" />
            <mxPoint x="125" y="1370.0000000000002" as="targetPoint" />
          </mxGeometry>
        </mxCell>
        <mxCell id="ob0Ww40zBPSw4X5EWycA-99" value="get general judgement, detect expression usage" style="text;html=1;align=center;verticalAlign=middle;resizable=0;points=[];autosize=1;strokeColor=none;fillColor=none;" vertex="1" parent="1">
          <mxGeometry x="530" y="1268" width="280" height="30" as="geometry" />
        </mxCell>
        <mxCell id="ob0Ww40zBPSw4X5EWycA-101" value="submit to llm" style="html=1;verticalAlign=bottom;endArrow=block;curved=0;rounded=0;entryX=0;entryY=0;entryDx=0;entryDy=5;entryPerimeter=0;" edge="1" parent="1">
          <mxGeometry width="80" relative="1" as="geometry">
            <mxPoint x="385" y="1310" as="sourcePoint" />
            <mxPoint x="935" y="1310" as="targetPoint" />
          </mxGeometry>
        </mxCell>
        <mxCell id="ob0Ww40zBPSw4X5EWycA-102" value="get expression usage judgement" style="text;html=1;align=center;verticalAlign=middle;resizable=0;points=[];autosize=1;strokeColor=none;fillColor=none;" vertex="1" parent="1">
          <mxGeometry x="560" y="1310" width="200" height="30" as="geometry" />
        </mxCell>
        <mxCell id="ob0Ww40zBPSw4X5EWycA-103" style="edgeStyle=orthogonalEdgeStyle;rounded=0;orthogonalLoop=1;jettySize=auto;html=1;" edge="1" parent="1" source="ob0Ww40zBPSw4X5EWycA-104" target="ob0Ww40zBPSw4X5EWycA-107">
          <mxGeometry relative="1" as="geometry">
            <mxPoint x="1520" y="1100.5" as="targetPoint" />
          </mxGeometry>
        </mxCell>
        <mxCell id="ob0Ww40zBPSw4X5EWycA-104" value="start" style="html=1;whiteSpace=wrap;" vertex="1" parent="1">
          <mxGeometry x="1465" y="1000.5" width="110" height="50" as="geometry" />
        </mxCell>
        <mxCell id="ob0Ww40zBPSw4X5EWycA-172" style="edgeStyle=orthogonalEdgeStyle;rounded=0;orthogonalLoop=1;jettySize=auto;html=1;" edge="1" parent="1" source="ob0Ww40zBPSw4X5EWycA-107" target="ob0Ww40zBPSw4X5EWycA-114">
          <mxGeometry relative="1" as="geometry" />
        </mxCell>
        <mxCell id="ob0Ww40zBPSw4X5EWycA-173" style="edgeStyle=orthogonalEdgeStyle;rounded=0;orthogonalLoop=1;jettySize=auto;html=1;" edge="1" parent="1" source="ob0Ww40zBPSw4X5EWycA-107" target="ob0Ww40zBPSw4X5EWycA-113">
          <mxGeometry relative="1" as="geometry" />
        </mxCell>
        <mxCell id="ob0Ww40zBPSw4X5EWycA-107" value="Get rtaining settings and data" style="html=1;whiteSpace=wrap;" vertex="1" parent="1">
          <mxGeometry x="1460" y="1143" width="120" height="55" as="geometry" />
        </mxCell>
        <mxCell id="ob0Ww40zBPSw4X5EWycA-113" value="render" style="ellipse;whiteSpace=wrap;html=1;aspect=fixed;" vertex="1" parent="1">
          <mxGeometry x="1100" y="1130" width="80" height="80" as="geometry" />
        </mxCell>
        <mxCell id="ob0Ww40zBPSw4X5EWycA-114" value="DB" style="shape=cylinder3;whiteSpace=wrap;html=1;boundedLbl=1;backgroundOutline=1;size=15;" vertex="1" parent="1">
          <mxGeometry x="1715" y="1040" width="250" height="295" as="geometry" />
        </mxCell>
        <mxCell id="ob0Ww40zBPSw4X5EWycA-186" style="edgeStyle=orthogonalEdgeStyle;rounded=0;orthogonalLoop=1;jettySize=auto;html=1;" edge="1" parent="1" source="ob0Ww40zBPSw4X5EWycA-119" target="ob0Ww40zBPSw4X5EWycA-185">
          <mxGeometry relative="1" as="geometry" />
        </mxCell>
        <mxCell id="ob0Ww40zBPSw4X5EWycA-119" value="Submit phrase" style="rounded=0;whiteSpace=wrap;html=1;" vertex="1" parent="1">
          <mxGeometry x="1170" y="1360" width="120" height="60" as="geometry" />
        </mxCell>
        <mxCell id="ob0Ww40zBPSw4X5EWycA-136" value="render page" style="ellipse;whiteSpace=wrap;html=1;aspect=fixed;" vertex="1" parent="1">
          <mxGeometry x="2035" y="2070" width="80" height="80" as="geometry" />
        </mxCell>
        <mxCell id="ob0Ww40zBPSw4X5EWycA-144" value="dialogues" style="shape=table;startSize=30;container=1;collapsible=1;childLayout=tableLayout;fixedRows=1;rowLines=0;fontStyle=1;align=center;resizeLast=1;html=1;" vertex="1" parent="1">
          <mxGeometry x="2035" y="1070" width="180" height="180" as="geometry" />
        </mxCell>
        <mxCell id="ob0Ww40zBPSw4X5EWycA-145" value="" style="shape=tableRow;horizontal=0;startSize=0;swimlaneHead=0;swimlaneBody=0;fillColor=none;collapsible=0;dropTarget=0;points=[[0,0.5],[1,0.5]];portConstraint=eastwest;top=0;left=0;right=0;bottom=1;" vertex="1" parent="ob0Ww40zBPSw4X5EWycA-144">
          <mxGeometry y="30" width="180" height="30" as="geometry" />
        </mxCell>
        <mxCell id="ob0Ww40zBPSw4X5EWycA-146" value="PK" style="shape=partialRectangle;connectable=0;fillColor=none;top=0;left=0;bottom=0;right=0;fontStyle=1;overflow=hidden;whiteSpace=wrap;html=1;" vertex="1" parent="ob0Ww40zBPSw4X5EWycA-145">
          <mxGeometry width="30" height="30" as="geometry">
            <mxRectangle width="30" height="30" as="alternateBounds" />
          </mxGeometry>
        </mxCell>
        <mxCell id="ob0Ww40zBPSw4X5EWycA-147" value="id" style="shape=partialRectangle;connectable=0;fillColor=none;top=0;left=0;bottom=0;right=0;align=left;spacingLeft=6;fontStyle=5;overflow=hidden;whiteSpace=wrap;html=1;" vertex="1" parent="ob0Ww40zBPSw4X5EWycA-145">
          <mxGeometry x="30" width="150" height="30" as="geometry">
            <mxRectangle width="150" height="30" as="alternateBounds" />
          </mxGeometry>
        </mxCell>
        <mxCell id="ob0Ww40zBPSw4X5EWycA-148" value="" style="shape=tableRow;horizontal=0;startSize=0;swimlaneHead=0;swimlaneBody=0;fillColor=none;collapsible=0;dropTarget=0;points=[[0,0.5],[1,0.5]];portConstraint=eastwest;top=0;left=0;right=0;bottom=0;" vertex="1" parent="ob0Ww40zBPSw4X5EWycA-144">
          <mxGeometry y="60" width="180" height="30" as="geometry" />
        </mxCell>
        <mxCell id="ob0Ww40zBPSw4X5EWycA-149" value="FK" style="shape=partialRectangle;connectable=0;fillColor=none;top=0;left=0;bottom=0;right=0;editable=1;overflow=hidden;whiteSpace=wrap;html=1;" vertex="1" parent="ob0Ww40zBPSw4X5EWycA-148">
          <mxGeometry width="30" height="30" as="geometry">
            <mxRectangle width="30" height="30" as="alternateBounds" />
          </mxGeometry>
        </mxCell>
        <mxCell id="ob0Ww40zBPSw4X5EWycA-150" value="user_id (str)" style="shape=partialRectangle;connectable=0;fillColor=none;top=0;left=0;bottom=0;right=0;align=left;spacingLeft=6;overflow=hidden;whiteSpace=wrap;html=1;" vertex="1" parent="ob0Ww40zBPSw4X5EWycA-148">
          <mxGeometry x="30" width="150" height="30" as="geometry">
            <mxRectangle width="150" height="30" as="alternateBounds" />
          </mxGeometry>
        </mxCell>
        <mxCell id="ob0Ww40zBPSw4X5EWycA-157" style="shape=tableRow;horizontal=0;startSize=0;swimlaneHead=0;swimlaneBody=0;fillColor=none;collapsible=0;dropTarget=0;points=[[0,0.5],[1,0.5]];portConstraint=eastwest;top=0;left=0;right=0;bottom=0;" vertex="1" parent="ob0Ww40zBPSw4X5EWycA-144">
          <mxGeometry y="90" width="180" height="30" as="geometry" />
        </mxCell>
        <mxCell id="ob0Ww40zBPSw4X5EWycA-158" style="shape=partialRectangle;connectable=0;fillColor=none;top=0;left=0;bottom=0;right=0;editable=1;overflow=hidden;whiteSpace=wrap;html=1;" vertex="1" parent="ob0Ww40zBPSw4X5EWycA-157">
          <mxGeometry width="30" height="30" as="geometry">
            <mxRectangle width="30" height="30" as="alternateBounds" />
          </mxGeometry>
        </mxCell>
        <mxCell id="ob0Ww40zBPSw4X5EWycA-159" value="settings (json)" style="shape=partialRectangle;connectable=0;fillColor=none;top=0;left=0;bottom=0;right=0;align=left;spacingLeft=6;overflow=hidden;whiteSpace=wrap;html=1;" vertex="1" parent="ob0Ww40zBPSw4X5EWycA-157">
          <mxGeometry x="30" width="150" height="30" as="geometry">
            <mxRectangle width="150" height="30" as="alternateBounds" />
          </mxGeometry>
        </mxCell>
        <mxCell id="ob0Ww40zBPSw4X5EWycA-160" style="shape=tableRow;horizontal=0;startSize=0;swimlaneHead=0;swimlaneBody=0;fillColor=none;collapsible=0;dropTarget=0;points=[[0,0.5],[1,0.5]];portConstraint=eastwest;top=0;left=0;right=0;bottom=0;" vertex="1" parent="ob0Ww40zBPSw4X5EWycA-144">
          <mxGeometry y="120" width="180" height="30" as="geometry" />
        </mxCell>
        <mxCell id="ob0Ww40zBPSw4X5EWycA-161" style="shape=partialRectangle;connectable=0;fillColor=none;top=0;left=0;bottom=0;right=0;editable=1;overflow=hidden;whiteSpace=wrap;html=1;" vertex="1" parent="ob0Ww40zBPSw4X5EWycA-160">
          <mxGeometry width="30" height="30" as="geometry">
            <mxRectangle width="30" height="30" as="alternateBounds" />
          </mxGeometry>
        </mxCell>
        <mxCell id="ob0Ww40zBPSw4X5EWycA-162" value="writings (json)" style="shape=partialRectangle;connectable=0;fillColor=none;top=0;left=0;bottom=0;right=0;align=left;spacingLeft=6;overflow=hidden;whiteSpace=wrap;html=1;" vertex="1" parent="ob0Ww40zBPSw4X5EWycA-160">
          <mxGeometry x="30" width="150" height="30" as="geometry">
            <mxRectangle width="150" height="30" as="alternateBounds" />
          </mxGeometry>
        </mxCell>
        <mxCell id="ob0Ww40zBPSw4X5EWycA-163" style="shape=tableRow;horizontal=0;startSize=0;swimlaneHead=0;swimlaneBody=0;fillColor=none;collapsible=0;dropTarget=0;points=[[0,0.5],[1,0.5]];portConstraint=eastwest;top=0;left=0;right=0;bottom=0;" vertex="1" parent="ob0Ww40zBPSw4X5EWycA-144">
          <mxGeometry y="150" width="180" height="30" as="geometry" />
        </mxCell>
        <mxCell id="ob0Ww40zBPSw4X5EWycA-164" style="shape=partialRectangle;connectable=0;fillColor=none;top=0;left=0;bottom=0;right=0;editable=1;overflow=hidden;whiteSpace=wrap;html=1;" vertex="1" parent="ob0Ww40zBPSw4X5EWycA-163">
          <mxGeometry width="30" height="30" as="geometry">
            <mxRectangle width="30" height="30" as="alternateBounds" />
          </mxGeometry>
        </mxCell>
        <mxCell id="ob0Ww40zBPSw4X5EWycA-165" value="expressions (json)" style="shape=partialRectangle;connectable=0;fillColor=none;top=0;left=0;bottom=0;right=0;align=left;spacingLeft=6;overflow=hidden;whiteSpace=wrap;html=1;" vertex="1" parent="ob0Ww40zBPSw4X5EWycA-163">
          <mxGeometry x="30" width="150" height="30" as="geometry">
            <mxRectangle width="150" height="30" as="alternateBounds" />
          </mxGeometry>
        </mxCell>
        <mxCell id="ob0Ww40zBPSw4X5EWycA-166" value="&lt;div style=&quot;background-color: rgb(43, 43, 43); font-family: Menlo, Monaco, &amp;quot;Courier New&amp;quot;, monospace; line-height: 18px; white-space-collapse: preserve; color: rgb(187, 187, 187);&quot;&gt;&lt;div style=&quot;color: rgb(187, 187, 187);&quot;&gt;&lt;span style=&quot;color: #a9b7c6;&quot;&gt;{&lt;/span&gt;&lt;/div&gt;&lt;div style=&quot;color: rgb(187, 187, 187);&quot;&gt;&lt;span style=&quot;color: #a9b7c6;&quot;&gt;    &lt;/span&gt;&lt;span style=&quot;color: #9876aa;&quot;&gt;&quot;maxExpressionsToTrain&quot;&lt;/span&gt;&lt;span style=&quot;color: #cc7832;&quot;&gt;:&lt;/span&gt;&lt;span style=&quot;color: #a9b7c6;&quot;&gt; &lt;/span&gt;&lt;span style=&quot;color: #6897bb;&quot;&gt;10&lt;/span&gt;&lt;span style=&quot;color: #cc7832;&quot;&gt;,&lt;/span&gt;&lt;/div&gt;&lt;div style=&quot;&quot;&gt;&lt;span style=&quot;color: rgb(169, 183, 198);&quot;&gt;    &lt;/span&gt;&lt;span style=&quot;color: rgb(152, 118, 170);&quot;&gt;&quot;maxWritingsToStore&quot;&lt;/span&gt;&lt;span style=&quot;color: rgb(204, 120, 50);&quot;&gt;:&lt;/span&gt;&lt;span style=&quot;color: rgb(169, 183, 198);&quot;&gt; &lt;/span&gt;&lt;span style=&quot;color: rgb(169, 183, 198);&quot;&gt;&lt;font color=&quot;#6a8759&quot;&gt;10&lt;/font&gt;&lt;/span&gt;&lt;span style=&quot;color: rgb(204, 120, 50);&quot;&gt;,&lt;/span&gt;&lt;/div&gt;&lt;div style=&quot;color: rgb(187, 187, 187);&quot;&gt;&lt;span style=&quot;color: #a9b7c6;&quot;&gt;}&lt;/span&gt;&lt;/div&gt;&lt;/div&gt;" style="text;html=1;align=left;verticalAlign=middle;resizable=0;points=[];autosize=1;strokeColor=none;fillColor=none;" vertex="1" parent="1">
          <mxGeometry x="2230" y="1040" width="250" height="90" as="geometry" />
        </mxCell>
        <mxCell id="ob0Ww40zBPSw4X5EWycA-167" value="Settings" style="text;html=1;align=center;verticalAlign=middle;resizable=0;points=[];autosize=1;strokeColor=none;fillColor=none;" vertex="1" parent="1">
          <mxGeometry x="2305" y="1015.5" width="70" height="30" as="geometry" />
        </mxCell>
        <mxCell id="ob0Ww40zBPSw4X5EWycA-168" value="&lt;div style=&quot;color: rgb(187, 187, 187); background-color: rgb(43, 43, 43); font-family: Menlo, Monaco, &amp;quot;Courier New&amp;quot;, monospace; line-height: 18px; white-space-collapse: preserve;&quot;&gt;&lt;div&gt;&lt;span style=&quot;color: #a9b7c6;&quot;&gt;[&lt;/span&gt;&lt;/div&gt;&lt;div&gt;&lt;span style=&quot;color: #a9b7c6;&quot;&gt;    {&lt;/span&gt;&lt;/div&gt;&lt;div&gt;&lt;span style=&quot;color: #a9b7c6;&quot;&gt;        &lt;/span&gt;&lt;span style=&quot;color: #9876aa;&quot;&gt;&quot;id&quot;&lt;/span&gt;&lt;span style=&quot;color: #cc7832;&quot;&gt;:&lt;/span&gt;&lt;span style=&quot;color: #a9b7c6;&quot;&gt; &lt;/span&gt;&lt;span style=&quot;color: #6897bb;&quot;&gt;1&lt;/span&gt;&lt;span style=&quot;color: #cc7832;&quot;&gt;,&lt;/span&gt;&lt;/div&gt;&lt;div&gt;&lt;span style=&quot;color: #a9b7c6;&quot;&gt;        &lt;/span&gt;&lt;span style=&quot;color: #9876aa;&quot;&gt;&quot;text&quot;&lt;/span&gt;&lt;span style=&quot;color: #cc7832;&quot;&gt;:&lt;/span&gt;&lt;span style=&quot;color: #a9b7c6;&quot;&gt; &lt;/span&gt;&lt;span style=&quot;color: #6a8759;&quot;&gt;&quot;str&quot;&lt;/span&gt;&lt;span style=&quot;color: #cc7832;&quot;&gt;,&lt;/span&gt;&lt;/div&gt;&lt;div&gt;&lt;span style=&quot;color: #a9b7c6;&quot;&gt;        &lt;/span&gt;&lt;span style=&quot;color: #9876aa;&quot;&gt;&quot;comment&quot;&lt;/span&gt;&lt;span style=&quot;color: #cc7832;&quot;&gt;:&lt;/span&gt;&lt;span style=&quot;color: #a9b7c6;&quot;&gt; &lt;/span&gt;&lt;span style=&quot;color: #6a8759;&quot;&gt;&quot;str&quot;&lt;/span&gt;&lt;/div&gt;&lt;div&gt;&lt;span style=&quot;color: #a9b7c6;&quot;&gt;    }&lt;/span&gt;&lt;span style=&quot;color: #cc7832;&quot;&gt;,&lt;/span&gt;&lt;/div&gt;&lt;div&gt;&lt;span style=&quot;color: #a9b7c6;&quot;&gt;    &lt;/span&gt;&lt;span style=&quot;color: #bc3f3c;&quot;&gt;...&lt;/span&gt;&lt;/div&gt;&lt;div&gt;&lt;span style=&quot;color: #a9b7c6;&quot;&gt;]&lt;/span&gt;&lt;/div&gt;&lt;/div&gt;" style="text;html=1;align=left;verticalAlign=middle;resizable=0;points=[];autosize=1;strokeColor=none;fillColor=none;" vertex="1" parent="1">
          <mxGeometry x="2245" y="1188" width="200" height="160" as="geometry" />
        </mxCell>
        <mxCell id="ob0Ww40zBPSw4X5EWycA-169" value="Writings" style="text;html=1;align=center;verticalAlign=middle;resizable=0;points=[];autosize=1;strokeColor=none;fillColor=none;" vertex="1" parent="1">
          <mxGeometry x="2300" y="1158" width="70" height="30" as="geometry" />
        </mxCell>
        <mxCell id="ob0Ww40zBPSw4X5EWycA-170" value="&lt;div style=&quot;color: rgb(187, 187, 187); background-color: rgb(43, 43, 43); font-family: Menlo, Monaco, &amp;quot;Courier New&amp;quot;, monospace; line-height: 18px; white-space-collapse: preserve;&quot;&gt;&lt;div&gt;&lt;span style=&quot;color: #a9b7c6;&quot;&gt;[&lt;/span&gt;&lt;/div&gt;&lt;div&gt;&lt;span style=&quot;color: #a9b7c6;&quot;&gt;    {&lt;/span&gt;&lt;/div&gt;&lt;div&gt;&lt;span style=&quot;color: #a9b7c6;&quot;&gt;        &lt;/span&gt;&lt;span style=&quot;color: #9876aa;&quot;&gt;&quot;id&quot;&lt;/span&gt;&lt;span style=&quot;color: #cc7832;&quot;&gt;:&lt;/span&gt;&lt;span style=&quot;color: #a9b7c6;&quot;&gt; &lt;/span&gt;&lt;span style=&quot;color: #bc3f3c;&quot;&gt;uuid&lt;/span&gt;&lt;span style=&quot;color: #cc7832;&quot;&gt;,&lt;/span&gt;&lt;/div&gt;&lt;div&gt;&lt;span style=&quot;color: #a9b7c6;&quot;&gt;        &lt;/span&gt;&lt;span style=&quot;color: #9876aa;&quot;&gt;&quot;status&quot;&lt;/span&gt;&lt;span style=&quot;color: #cc7832;&quot;&gt;:&lt;/span&gt;&lt;span style=&quot;color: #a9b7c6;&quot;&gt; &lt;/span&gt;&lt;span style=&quot;color: #6a8759;&quot;&gt;&quot;failed&quot;&lt;/span&gt;&lt;span style=&quot;color: #cc7832;&quot;&gt;,&lt;/span&gt;&lt;/div&gt;&lt;div&gt;&lt;span style=&quot;color: #a9b7c6;&quot;&gt;        &lt;/span&gt;&lt;span style=&quot;color: #9876aa;&quot;&gt;&quot;comment&quot;&lt;/span&gt;&lt;span style=&quot;color: #cc7832;&quot;&gt;:&lt;/span&gt;&lt;span style=&quot;color: #a9b7c6;&quot;&gt; &lt;/span&gt;&lt;span style=&quot;color: #6a8759;&quot;&gt;&quot;This is a comment&quot;&lt;/span&gt;&lt;/div&gt;&lt;div&gt;&lt;span style=&quot;color: #a9b7c6;&quot;&gt;    }&lt;/span&gt;&lt;span style=&quot;color: #cc7832;&quot;&gt;,&lt;/span&gt;&lt;/div&gt;&lt;div&gt;&lt;span style=&quot;color: #a9b7c6;&quot;&gt;    &lt;/span&gt;&lt;span style=&quot;color: #bc3f3c;&quot;&gt;...&lt;/span&gt;&lt;/div&gt;&lt;div&gt;&lt;span style=&quot;color: #a9b7c6;&quot;&gt;]&lt;/span&gt;&lt;/div&gt;&lt;/div&gt;" style="text;html=1;align=left;verticalAlign=middle;resizable=0;points=[];autosize=1;strokeColor=none;fillColor=none;" vertex="1" parent="1">
          <mxGeometry x="2030" y="1350" width="300" height="160" as="geometry" />
        </mxCell>
        <mxCell id="ob0Ww40zBPSw4X5EWycA-171" value="Expressions" style="text;html=1;align=center;verticalAlign=middle;resizable=0;points=[];autosize=1;strokeColor=none;fillColor=none;" vertex="1" parent="1">
          <mxGeometry x="2120" y="1320" width="90" height="30" as="geometry" />
        </mxCell>
        <mxCell id="ob0Ww40zBPSw4X5EWycA-180" style="edgeStyle=orthogonalEdgeStyle;rounded=0;orthogonalLoop=1;jettySize=auto;html=1;" edge="1" parent="1" source="ob0Ww40zBPSw4X5EWycA-175" target="ob0Ww40zBPSw4X5EWycA-178">
          <mxGeometry relative="1" as="geometry" />
        </mxCell>
        <mxCell id="ob0Ww40zBPSw4X5EWycA-181" style="edgeStyle=orthogonalEdgeStyle;rounded=0;orthogonalLoop=1;jettySize=auto;html=1;" edge="1" parent="1" source="ob0Ww40zBPSw4X5EWycA-175" target="ob0Ww40zBPSw4X5EWycA-179">
          <mxGeometry relative="1" as="geometry" />
        </mxCell>
        <mxCell id="ob0Ww40zBPSw4X5EWycA-175" value="" style="shape=line;html=1;strokeWidth=6;strokeColor=#000000;" vertex="1" parent="1">
          <mxGeometry x="1130" y="1610" width="200" height="10" as="geometry" />
        </mxCell>
        <mxCell id="ob0Ww40zBPSw4X5EWycA-183" style="edgeStyle=orthogonalEdgeStyle;rounded=0;orthogonalLoop=1;jettySize=auto;html=1;" edge="1" parent="1" source="ob0Ww40zBPSw4X5EWycA-178" target="ob0Ww40zBPSw4X5EWycA-182">
          <mxGeometry relative="1" as="geometry" />
        </mxCell>
        <mxCell id="ob0Ww40zBPSw4X5EWycA-178" value="call llm for general judgement" style="rounded=0;whiteSpace=wrap;html=1;" vertex="1" parent="1">
          <mxGeometry x="1070" y="1690" width="120" height="60" as="geometry" />
        </mxCell>
        <mxCell id="ob0Ww40zBPSw4X5EWycA-179" value="call llm for expression usage" style="rounded=0;whiteSpace=wrap;html=1;" vertex="1" parent="1">
          <mxGeometry x="1280" y="1690" width="120" height="60" as="geometry" />
        </mxCell>
        <mxCell id="ob0Ww40zBPSw4X5EWycA-193" style="edgeStyle=orthogonalEdgeStyle;rounded=0;orthogonalLoop=1;jettySize=auto;html=1;" edge="1" parent="1" source="ob0Ww40zBPSw4X5EWycA-182" target="ob0Ww40zBPSw4X5EWycA-189">
          <mxGeometry relative="1" as="geometry">
            <Array as="points">
              <mxPoint x="1230" y="1870" />
              <mxPoint x="1030" y="1870" />
            </Array>
          </mxGeometry>
        </mxCell>
        <mxCell id="ob0Ww40zBPSw4X5EWycA-194" style="edgeStyle=orthogonalEdgeStyle;rounded=0;orthogonalLoop=1;jettySize=auto;html=1;" edge="1" parent="1" source="ob0Ww40zBPSw4X5EWycA-182" target="ob0Ww40zBPSw4X5EWycA-191">
          <mxGeometry relative="1" as="geometry" />
        </mxCell>
        <mxCell id="ob0Ww40zBPSw4X5EWycA-195" style="edgeStyle=orthogonalEdgeStyle;rounded=0;orthogonalLoop=1;jettySize=auto;html=1;" edge="1" parent="1" source="ob0Ww40zBPSw4X5EWycA-182" target="ob0Ww40zBPSw4X5EWycA-190">
          <mxGeometry relative="1" as="geometry">
            <Array as="points">
              <mxPoint x="1230" y="1870" />
              <mxPoint x="1420" y="1870" />
            </Array>
          </mxGeometry>
        </mxCell>
        <mxCell id="ob0Ww40zBPSw4X5EWycA-182" value="" style="shape=line;html=1;strokeWidth=6;strokeColor=#000000;" vertex="1" parent="1">
          <mxGeometry x="1130" y="1830" width="200" height="10" as="geometry" />
        </mxCell>
        <mxCell id="ob0Ww40zBPSw4X5EWycA-184" style="edgeStyle=orthogonalEdgeStyle;rounded=0;orthogonalLoop=1;jettySize=auto;html=1;entryX=0.505;entryY=0.25;entryDx=0;entryDy=0;entryPerimeter=0;" edge="1" parent="1" source="ob0Ww40zBPSw4X5EWycA-179" target="ob0Ww40zBPSw4X5EWycA-182">
          <mxGeometry relative="1" as="geometry" />
        </mxCell>
        <mxCell id="ob0Ww40zBPSw4X5EWycA-187" style="edgeStyle=orthogonalEdgeStyle;rounded=0;orthogonalLoop=1;jettySize=auto;html=1;" edge="1" parent="1" source="ob0Ww40zBPSw4X5EWycA-185" target="ob0Ww40zBPSw4X5EWycA-114">
          <mxGeometry relative="1" as="geometry" />
        </mxCell>
        <mxCell id="ob0Ww40zBPSw4X5EWycA-185" value="Get data about expressions" style="rounded=0;whiteSpace=wrap;html=1;" vertex="1" parent="1">
          <mxGeometry x="1170" y="1480" width="120" height="60" as="geometry" />
        </mxCell>
        <mxCell id="ob0Ww40zBPSw4X5EWycA-188" style="edgeStyle=orthogonalEdgeStyle;rounded=0;orthogonalLoop=1;jettySize=auto;html=1;entryX=0.5;entryY=0.65;entryDx=0;entryDy=0;entryPerimeter=0;" edge="1" parent="1" source="ob0Ww40zBPSw4X5EWycA-185" target="ob0Ww40zBPSw4X5EWycA-175">
          <mxGeometry relative="1" as="geometry" />
        </mxCell>
        <mxCell id="ob0Ww40zBPSw4X5EWycA-189" value="call llm for expression usage" style="rounded=0;whiteSpace=wrap;html=1;" vertex="1" parent="1">
          <mxGeometry x="970" y="1920" width="120" height="60" as="geometry" />
        </mxCell>
        <mxCell id="ob0Ww40zBPSw4X5EWycA-190" value="call llm for expression usage" style="rounded=0;whiteSpace=wrap;html=1;" vertex="1" parent="1">
          <mxGeometry x="1360" y="1920" width="120" height="60" as="geometry" />
        </mxCell>
        <mxCell id="ob0Ww40zBPSw4X5EWycA-198" style="edgeStyle=orthogonalEdgeStyle;rounded=0;orthogonalLoop=1;jettySize=auto;html=1;" edge="1" parent="1" source="ob0Ww40zBPSw4X5EWycA-191">
          <mxGeometry relative="1" as="geometry">
            <mxPoint x="1230" y="2040" as="targetPoint" />
          </mxGeometry>
        </mxCell>
        <mxCell id="ob0Ww40zBPSw4X5EWycA-191" value="call llm for expression usage" style="rounded=0;whiteSpace=wrap;html=1;" vertex="1" parent="1">
          <mxGeometry x="1121" y="1920" width="120" height="60" as="geometry" />
        </mxCell>
        <mxCell id="ob0Ww40zBPSw4X5EWycA-192" value="..." style="text;html=1;align=center;verticalAlign=middle;resizable=0;points=[];autosize=1;strokeColor=none;fillColor=none;" vertex="1" parent="1">
          <mxGeometry x="1290" y="1950" width="30" height="30" as="geometry" />
        </mxCell>
        <mxCell id="ob0Ww40zBPSw4X5EWycA-201" style="edgeStyle=orthogonalEdgeStyle;rounded=0;orthogonalLoop=1;jettySize=auto;html=1;" edge="1" parent="1" source="ob0Ww40zBPSw4X5EWycA-196" target="ob0Ww40zBPSw4X5EWycA-200">
          <mxGeometry relative="1" as="geometry">
            <Array as="points">
              <mxPoint x="1230" y="2110" />
            </Array>
          </mxGeometry>
        </mxCell>
        <mxCell id="ob0Ww40zBPSw4X5EWycA-196" value="" style="shape=line;html=1;strokeWidth=6;strokeColor=#000000;" vertex="1" parent="1">
          <mxGeometry x="1130" y="2050" width="200" height="10" as="geometry" />
        </mxCell>
        <mxCell id="ob0Ww40zBPSw4X5EWycA-197" style="edgeStyle=orthogonalEdgeStyle;rounded=0;orthogonalLoop=1;jettySize=auto;html=1;entryX=0.5;entryY=0.55;entryDx=0;entryDy=0;entryPerimeter=0;" edge="1" parent="1" source="ob0Ww40zBPSw4X5EWycA-189" target="ob0Ww40zBPSw4X5EWycA-196">
          <mxGeometry relative="1" as="geometry">
            <Array as="points">
              <mxPoint x="1030" y="2010" />
              <mxPoint x="1230" y="2010" />
            </Array>
          </mxGeometry>
        </mxCell>
        <mxCell id="ob0Ww40zBPSw4X5EWycA-199" style="edgeStyle=orthogonalEdgeStyle;rounded=0;orthogonalLoop=1;jettySize=auto;html=1;entryX=0.5;entryY=0.45;entryDx=0;entryDy=0;entryPerimeter=0;" edge="1" parent="1" source="ob0Ww40zBPSw4X5EWycA-190" target="ob0Ww40zBPSw4X5EWycA-196">
          <mxGeometry relative="1" as="geometry">
            <Array as="points">
              <mxPoint x="1420" y="2010" />
              <mxPoint x="1230" y="2010" />
            </Array>
          </mxGeometry>
        </mxCell>
        <mxCell id="ob0Ww40zBPSw4X5EWycA-202" style="edgeStyle=orthogonalEdgeStyle;rounded=0;orthogonalLoop=1;jettySize=auto;html=1;" edge="1" parent="1" source="ob0Ww40zBPSw4X5EWycA-200" target="ob0Ww40zBPSw4X5EWycA-114">
          <mxGeometry relative="1" as="geometry" />
        </mxCell>
        <mxCell id="ob0Ww40zBPSw4X5EWycA-203" style="edgeStyle=orthogonalEdgeStyle;rounded=0;orthogonalLoop=1;jettySize=auto;html=1;" edge="1" parent="1" source="ob0Ww40zBPSw4X5EWycA-200" target="ob0Ww40zBPSw4X5EWycA-136">
          <mxGeometry relative="1" as="geometry" />
        </mxCell>
        <mxCell id="ob0Ww40zBPSw4X5EWycA-200" value="update training state" style="rounded=0;whiteSpace=wrap;html=1;" vertex="1" parent="1">
          <mxGeometry x="1480" y="2080" width="120" height="60" as="geometry" />
        </mxCell>
      </root>
    </mxGraphModel>
  </diagram>
</mxfile>
